<?xml version="1.0" standalone="no"?>
<!DOCTYPE svg PUBLIC "-//W3C//DTD SVG 1.1//EN" "http://www.w3.org/Graphics/SVG/1.1/DTD/svg11.dtd" >
<svg>
<metadata>
Created by FontForge 20090914 at Tue Jun 28 04:17:31 2016
 By www-data
(c) 2000 Borna Rayaneh
</metadata>
<defs>
<font id="BFantezy" horiz-adv-x="0" >
  <font-face 
    font-family="B Fantezy"
    font-weight="400"
    font-stretch="normal"
    units-per-em="2048"
    panose-1="0 0 4 0 0 0 0 0 0 0"
    ascent="1638"
    descent="-410"
    bbox="-366.003 -1013 2549 2346"
    underline-thickness="100"
    underline-position="-420"
    unicode-range="U+0020-U+FEFC"
  />
<missing-glyph horiz-adv-x="1024" 
d="M128 0v1384h768v-1384h-768zM256 128h512v1128h-512v-1128z" />
    <glyph glyph-name="uE818" unicode="&#x651;&#x64b;" 
d="M362 2261c-22.667 -7.33301 -94 -39 -214 -95c-102.667 -48 -169 -72 -199 -72h-100c240.667 111.333 378 167 412 167h101zM400 2150c-22.667 -7.33301 -94 -39 -214 -95c-102.667 -48 -169 -72 -199 -72h-100c240.667 111.333 378 167 412 167h101zM438 1905
c-26.667 -6.66699 -86.667 -33.334 -180 -80.001c-86.667 -44 -137 -66 -151 -66c-22.667 0 -50 20 -82 60l-68 89h59c16 0 36.667 -10.667 62 -32s40 -32 44 -32c32 0 48 13 48 39c0 44 -21.333 79 -64 105h61c16 0 35.5 -14.167 58.5 -42.5s35.833 -42.5 38.5 -42.5
c30 0 45 16 45 48c0 34.667 -17.333 61.334 -52 80.001c34.667 2.66699 53.667 4 57 4c26 0 48.667 -17 68 -51c25.333 -44 44 -70.333 56 -79z" />
    <glyph glyph-name="uFC5E" unicode="&#x651;&#x64c;" arabic-form="isolated" 
d="M429 1895c-27.333 -6.66699 -87.3359 -33.334 -180.003 -80.001c-87.333 -44 -137.666 -66 -150.999 -66c-23.333 0 -50.666 20 -81.999 60c-5.33301 6 -28 35.667 -68 89h59c15.333 0 35.833 -10.667 61.5 -32s40.5 -32 44.5 -32c32 0 48 13 48 39
c0 44 -21.333 79 -64 105h61c16 0 35.333 -14.167 58 -42.5s35.667 -42.5 39 -42.5c30 0 45 16 45 48c0 34.667 -17.333 61.334 -52 80.001c34.667 2.66699 53.667 4 57 4c25.333 0 48 -17 68 -51c24.667 -44 43.334 -70.333 56.001 -79zM325.997 2148
c0 -30 -24.666 -56 -73.999 -78l58 -52h-44c-22 0 -45 8.33301 -69 25c-98 -54.667 -169 -82 -213 -82v83c-30.667 -13.333 -63.334 -20 -98.001 -20h-66c67.333 29.333 145.333 67.666 234 115v-96c21.333 8 51.333 21.333 90 40c-42.667 38 -64 68.333 -64 91
c0 27.333 21.667 58.333 65 93c17.333 14 48.333 37 93 69c0 -14 14.667 -45.167 44 -93.5s44 -79.833 44 -94.5zM256.998 2158c0 37.333 -18.667 56 -56 56c-34 0 -51 -13.667 -51 -41c0 -10 18 -29.667 54 -59c35.333 20.667 53 35.334 53 44z" />
    <glyph glyph-name="uFC5F" unicode="&#x651;&#x64d;" arabic-form="isolated" 
d="M351 2115c-26.667 -6.66699 -86.668 -33.334 -180.001 -80c-87.333 -44 -137.666 -66 -150.999 -66c-22.667 0 -50 20 -82 60l-68 89h59c15.333 0 35.833 -10.667 61.5 -32s40.5 -32 44.5 -32c32 0 48 13 48 39c0 44 -21.333 79 -64 105h61c16 0 35.333 -14.167 58 -42.5
s35.667 -42.5 39 -42.5c30 0 45 16 45 48c0 34.667 -17.333 61.334 -52 80c34.667 2.66699 53.667 4 57 4c26 0 48.667 -17 68 -51c25.333 -44 44 -70.333 56 -79zM439.999 2037c-22.667 -7.33301 -94 -39 -214 -95c-102.667 -48 -169 -72 -199 -72h-100
c240.667 111.333 378 167 412 167h101zM477.999 1926c-22.667 -7.33301 -94 -39 -214 -95c-102.667 -48 -169 -72 -199 -72h-100c240.667 111.333 378 167 412 167h101z" />
    <glyph glyph-name="uFC60" unicode="&#x651;&#x64e;" arabic-form="isolated" 
d="M418 1899c-26.667 -6.66699 -86.6689 -33.334 -180.002 -80.001c-87.333 -44 -137.666 -66 -150.999 -66c-22.667 0 -50 20 -82 60l-68 89h59c15.333 0 35.833 -10.667 61.5 -32s40.5 -32 44.5 -32c32 0 48 13 48 39c0 44 -21.333 79 -64 105h61
c16 0 35.333 -14.167 58 -42.5s35.667 -42.5 39 -42.5c30 0 45 16 45 48c0 34.667 -17.333 61.334 -52 80.001c34.667 2.66699 53.667 4 57 4c26 0 48.667 -17 68 -51c24.667 -44 43.334 -70.333 56.001 -79zM383.998 2141c-22.667 -7.33301 -94 -39 -214 -95
c-102.667 -48 -169 -72 -199 -72h-100c240.667 111.333 378 167 412 167h101z" />
    <glyph glyph-name="uFC61" unicode="&#x651;&#x64f;" arabic-form="isolated" 
d="M432 1899c-28 -6.66699 -88.333 -33.334 -181 -80.001c-86.667 -44 -136.667 -66 -150 -66c-22.667 0 -50 20 -82 60l-68 89h59c16 0 36.833 -10.667 62.5 -32s40.167 -32 43.5 -32c32 0 48 13 48 39c0 44 -21.333 79 -64 105h61c16.667 0 36.334 -14.167 59.001 -42.5
s35.334 -42.5 38.001 -42.5c30 0 45 16 45 48c0 26 -11.333 47.667 -34 65c-8 6.66699 -29 21.334 -63 44.001l-106 -54c-38.667 -19.333 -76.334 -29 -113.001 -29h-92c72 27.333 157.667 68.333 257 123c-41.333 38 -62 68 -62 90c0 27.333 21.667 58.333 65 93l93 69
c0 -14 14.667 -45.333 44 -94s44 -80 44 -94c0 -30 -24.667 -56 -74 -78l58 -52c19.333 -1.33301 38.666 -19 57.999 -53c24 -42 42 -67.333 54 -76zM267 2168c0 37.333 -18.667 56 -56 56c-34 0 -51 -13.667 -51 -41c0 -10 18 -29.667 54 -59
c35.333 20.667 53 35.334 53 44z" />
    <glyph glyph-name="uFC62" unicode="&#x651;&#x650;" arabic-form="isolated" 
d="M362 1958c-26.667 -6.66699 -86.6689 -33.334 -180.002 -80.001c-86.667 -44 -137 -66 -151 -66c-22.667 0 -50 20 -82 60l-68 89h59c16 0 36.833 -10.667 62.5 -32s40.167 -32 43.5 -32c32 0 48 13 48 39c0 44 -21.333 79 -64 105h61
c16.667 0 36.334 -14.167 59.001 -42.5s35.334 -42.5 38.001 -42.5c30 0 45 16 45 48c0 34.667 -17.333 61.334 -52 80.001c34.667 2.66699 53.667 4 57 4c26 0 48.667 -17 68 -51c25.333 -44 44 -70.333 56 -79zM450.998 1880c-22.667 -7.33301 -94 -39 -214 -95
c-102 -48 -168.333 -72 -199 -72h-100c240.667 111.333 378 167 412 167h101z" />
    <glyph glyph-name="uFDF2" unicode="&#xfedf;&#xfee0;&#xfeea;" horiz-adv-x="1374" arabic-form="isolated" 
d="M1097 440c-33.333 -33.333 -76.665 -50.001 -129.998 -50.001s-97.333 38.667 -132 116c-10.667 24.667 -28.334 84 -53.001 178c-3.33301 -19.333 -10 -48 -20 -86c0 -20 -14.667 -50.667 -44 -92c-14.667 -20.667 -40 -46.667 -76 -78v188
c72.667 77.333 109 143.333 109 198c0 20.667 -8.33301 57.334 -25 110.001l-94 316v90c0 36.667 5 56.334 15 59.001l10 -5c32 -86.667 60 -173.334 84 -260.001l121 -460c18 -64 54 -96 108 -96c47.333 0 89.666 20.333 126.999 61v-189zM1295 933.999
c0 -226 -70 -394.667 -210 -506v188c112.667 113.333 169 219.333 169 318c0 68.667 -25 150.667 -75 246c-20.667 39.333 -65.667 112.333 -135 219l26 -368l-8 -9l-10 4c-13.333 20 -26.333 108.667 -39 266c-10.667 132 -16 226.333 -16 283c0 20 3.33301 35 10 45
c79.333 -42 149 -143.667 209 -305c52.667 -142 79 -269 79 -381zM644.001 426.999c-47.333 -47.333 -115.001 -70.999 -203.001 -70.999c-4 0 -28.333 5 -73 15l-47 -7c-48 -7.33301 -108.333 -89 -181 -245l-12 -8c-18.667 43.333 -28 93.666 -28 150.999
c0 34 26.333 89.333 79 166c58 84 109.333 126 154 126c16.667 0 40.834 -6.16699 72.501 -18.5s55.834 -18.5 72.501 -18.5c45.333 0 100.666 33.333 165.999 100v-190z" />
    <glyph glyph-name="uFEF5" unicode="&#xfedf;&#xfe82;" horiz-adv-x="1081" arabic-form="isolated" 
d="M596 1808c0 -49.333 -20.498 -96.833 -61.498 -142.5s-85.833 -68.5 -134.5 -68.5c-7.33301 0 -18 1 -32 3s-24.667 3 -32 3c-44.667 0 -82.334 -27 -113.001 -81l-15 5l-3 23c26.667 81.333 68.667 127 126 137c14.667 -3.33301 32.667 -5 54 -5
c38 0 74.333 15.667 109 47c33.333 29.333 55.666 63 66.999 101l17 13l11 2zM1042 684c0 -109.333 -12.6689 -226.67 -38.002 -352.003c-36 -178 -87 -267 -153 -267c-64 0 -123.667 22.333 -179 67c-32 26 -76.333 74.667 -133 146
c-59.333 -93.333 -165 -169.666 -317 -228.999c-86.667 -34 -165 -51 -235 -51c-8 0 -14.667 3 -20 9c2 4 5.66699 10 11 18c88.667 33.333 177.334 87.666 266.001 162.999c83.333 70.667 153 148 209 232c-73.333 158 -110 336.667 -110 536c0 88.667 8.33301 184 25 286
l47 282l-2 16l7 8c7.33301 -1.33301 13.333 -5 18 -11c86 -209.333 137 -342 153 -398c35.333 -120.667 53 -261 53 -421c0 -104.667 -17 -214 -51 -328c60.667 -72.667 124.334 -109 191.001 -109c56 0 104 69 144 207c32 110 48 204.333 48 283
c0 91.333 -17.333 181 -52 269c-37.333 96 -88.333 171 -153 225v-31c0 -147.333 14 -296.666 42 -447.999c1.33301 -6 -2.66699 -10 -12 -12c-9.33301 4 -25.333 55.667 -48 155c-34 148.667 -52.333 346.334 -55 593.001c-0.666992 44.667 4.33301 71 15 79l8 -1
c113.333 -145.333 195 -288.333 245 -429c50.667 -143.333 76 -305.666 76 -486.999zM458 1219c-30 -98 -45 -216.333 -45 -355c0 -112 31.667 -228 95 -348c50 98 75 219 75 363c0 96.667 -41.667 210 -125 340z" />
    <glyph glyph-name="uFEF6" unicode="&#xfee0;&#xfe82;" horiz-adv-x="1066" arabic-form="final" 
d="M286 1502l3.99805 -35.001c0 -68 -41.667 -130.667 -125 -188c-23.333 -16 -46.333 -24 -69 -24c-7.33301 0 -18.333 1.16699 -33 3.5s-25.667 3.5 -33 3.5c-37.333 0 -75.666 -27 -114.999 -81l-5 -1l-5 2l-7 25c9.33301 33.333 24 63 44 89
c24.667 32.667 51.334 49 80.001 49c7.33301 0 18.5 -0.833008 33.5 -2.5s26.167 -2.5 33.5 -2.5c9.33301 0 16.333 1.33301 21 4c25.333 0 54.666 17.667 87.999 53c30.667 33.333 49 63.333 55 90c8.66699 8.66699 17.334 14.334 26.001 17.001zM1081 440.999
c-5.33301 -8.66699 -25 -20.6689 -59 -36.002c-25.333 -11.333 -46.333 -17 -63 -17c-72.667 0 -133.667 53.667 -183 161c0 -248 -25 -420 -75 -516c-31.333 -60 -83.666 -90 -156.999 -90c-80.667 0 -158.334 38 -233.001 114c-99.333 -124.667 -273.333 -187 -522 -187
c-2.66699 0.666992 -6.66699 2.33398 -12 5.00098l12 15c204 38.667 355.333 123.667 454 255c-80.667 141.333 -121 309.333 -121 504c0 72 7 160.333 21 265c7.33301 27.333 13 55 17 83c10.667 72.667 21.667 129 33 169c72 -137.333 122.333 -243.666 151 -318.999
c47.333 -124.667 71 -239.334 71 -344.001c0 -152.667 -15.667 -267 -47 -343c54.667 -30 104 -45 148 -45c63.333 0 113.333 39.333 150 118c28 60 44 127.333 48 202c-0.666992 7.33301 0.666016 18.333 3.99902 33l1 52c2 111.333 -27.667 249 -89 413
c-1.33301 4 -53.666 131 -156.999 381l-17 21l24 165c14 -10 41.667 -62.667 83 -158c68.667 -158 125 -313 169 -465l33 -122c12 -41.333 30.667 -78.333 56 -111c32.667 -41.333 67.667 -65.666 105 -72.999c17.333 -3.33301 29.333 -5 36 -5c39.333 0 79 21.667 119 65
v-190zM370.998 497.997c0 42 -20.5 115.499 -61.5 220.499s-75.833 169.5 -104.5 193.5c-25.333 -157.333 -38 -258 -38 -302c0 -167.333 42 -297.333 126 -390c52 86.667 78 179.334 78 278.001z" />
    <glyph glyph-name="uFEF7" unicode="&#xfedf;&#xfe84;" horiz-adv-x="1081" arabic-form="isolated" 
d="M335 1494c3.33301 -10 6.66602 -20.668 9.99902 -32.001c0 -47.333 -25.667 -85.666 -77 -114.999c-29.333 -16.667 -90.333 -33.334 -183 -50.001c-6 -1.33301 -9.33301 3 -10 13c108.667 38.667 174 67.667 196 87l4 10l-7 7l-23 -2l-27 2c-20 17.333 -30 36 -30 56
c0 28 10 61.667 30 101c22.667 44.667 47 67 73 67c10.667 0 18.667 -1.66699 24 -5c-2 -47.333 -10.333 -78.333 -25 -93l-22 3c-7.33301 0 -14 -2 -20 -6l-2 -20c4 -5.33301 8.66699 -9.66602 14 -12.999l40 1c14.667 0.666992 26.334 -3 35.001 -11zM1042 683.999
c0 -109.333 -12.6689 -226.67 -38.002 -352.003c-36 -178 -87 -267 -153 -267c-64 0 -123.667 22.333 -179 67c-32 26 -76.333 74.667 -133 146c-59.333 -93.333 -165 -169.666 -317 -228.999c-86.667 -34 -165 -51 -235 -51c-8 0 -14.667 3 -20 9c2 4 5.66699 10 11 18
c88.667 33.333 177.334 87.666 266.001 162.999c83.333 70.667 153 148 209 232c-73.333 158 -110 336.667 -110 536c0 88.667 8.33301 184 25 286l47 282l-2 16l7 8c7.33301 -1.33301 13.333 -5 18 -11c86 -209.333 137 -342 153 -398c35.333 -120.667 53 -261 53 -421
c0 -104.667 -17 -214 -51 -328c60.667 -72.667 124.334 -109 191.001 -109c56 0 104 69 144 207c32 110 48 204.333 48 283c0 91.333 -17.333 181 -52 269c-37.333 96 -88.333 171 -153 225v-31c0 -147.333 14 -296.666 42 -447.999c1.33301 -6 -2.66699 -10 -12 -12
c-9.33301 4 -25.333 55.667 -48 155c-34 148.667 -52.333 346.334 -55 593.001c-0.666992 44.667 4.33301 71 15 79l8 -1c113.333 -145.333 195 -288.333 245 -429c50.667 -143.333 76 -305.666 76 -486.999zM457.998 1219c-30 -98 -45 -216.333 -45 -355
c0 -112 31.667 -228 95 -348c50 98 75 219 75 363c0 96.667 -41.667 210 -125 340z" />
    <glyph glyph-name="uFEF8" unicode="&#xfee0;&#xfe84;" horiz-adv-x="1101" arabic-form="final" 
d="M186 1194c0 -49.333 -32.3291 -90.333 -96.9961 -123c-53.333 -26.667 -108 -40 -164 -40c-6 0 -9.33301 4.33301 -10 13c41.333 14.667 72.666 26.334 93.999 35.001c59.333 23.333 93.666 40.666 102.999 51.999l3 10l-5 6l-25 -3c-36.667 0 -55 21 -55 63
c0 34 9.66699 67.167 29 99.5s44 54.833 74 67.5l24 -7l-2 -18c-2.66699 -15.333 -4.33398 -25.333 -5.00098 -30c-4.66699 -23.333 -11.334 -38.333 -20.001 -45l-20 3c-8 0 -15 -1.66699 -21 -5c-1.33301 -4.66699 -2 -9 -2 -13l2 -9l13 -13l40 2l23 -2
c14 -10.667 21 -25 21 -43zM1112 441c-29.333 -35.333 -72.999 -53 -130.999 -53c-66.667 0 -128.334 53.667 -185.001 161c4 -233.333 -19.667 -402 -71 -506c-32.667 -66.667 -85.667 -100 -159 -100c-78.667 0 -157 38 -235 114c-93.333 -124.667 -267 -187 -521 -187
c-3.33301 0.666992 -7 2.33398 -11 5.00098c0 8.66699 3.66699 13.667 11 15c32.667 6 70 15 112 27c144.667 41.333 259 117.333 343 228c-81.333 142.667 -122 313.667 -122 513c0 99.333 6 185 18 257c5.33301 18 11.666 45.333 18.999 82c4 38 15.667 94.333 35 169
c2.66699 -6 27 -53.333 73 -142c98 -189.333 147 -372.333 147 -549c0 -150.667 -15 -255.667 -45 -315c37.333 -30 89.333 -45 156 -45c70 0 122.667 55 158 165c25.333 78.667 38 161.667 38 249c0 112.667 -45.333 283.334 -136 512.001l-57 153
c-24 62.667 -47.667 109.667 -71 141l23 165c46.667 -39.333 131 -248 253 -626c4 -12.667 14 -50.334 30 -113.001c12.667 -50.667 36 -94.334 70 -131.001c38.667 -42.667 82 -64 130 -64c50.667 0 93.334 21.667 128.001 65v-190zM393.005 498
c0 42.667 -20.334 114.998 -61.001 216.998c-41.333 104.667 -76.666 170.334 -105.999 197.001c-25.333 -145.333 -38 -270 -38 -374c0 -50.667 12.333 -107.334 37 -170.001c25.333 -65.333 55.333 -114.666 90 -147.999c52 84.667 78 177.334 78 278.001z" />
    <glyph glyph-name="uFEF9" unicode="&#xfedf;&#xfe88;" horiz-adv-x="1081" arabic-form="isolated" 
d="M586 -235c0 -46.667 -32.333 -87 -97 -121c-55.333 -29.333 -109.333 -44 -162 -44c-7.33301 0 -11.333 4.66699 -12 14l101 37c60 23.333 93.333 43.666 100 60.999l-6 5l-25 -2l-27 4c-20 12.667 -30 32 -30 58c0 53.333 25 105 75 155l28 11l25 -6
c0 -18 -8.33301 -49.333 -25 -94l-23 4c-8 0 -14.667 -2.33301 -20 -7v-6c0 -9.33301 4.33301 -17.666 13 -24.999h55c20 -8 30 -22.667 30 -44zM1042 684c0 -109.333 -12.6689 -226.67 -38.002 -352.003c-36 -178 -87 -267 -153 -267c-64 0 -123.667 22.333 -179 67
c-32 26 -76.333 74.667 -133 146c-59.333 -93.333 -165 -169.666 -317 -228.999c-86.667 -34 -165 -51 -235 -51c-8 0 -14.667 3 -20 9c2 4 5.66699 10 11 18c88.667 33.333 177.334 87.666 266.001 162.999c83.333 70.667 153 148 209 232
c-73.333 158 -110 336.667 -110 536c0 88.667 8.33301 184 25 286l47 282l-2 16l7 8c7.33301 -1.33301 13.333 -5 18 -11c86 -209.333 137 -342 153 -398c35.333 -120.667 53 -261 53 -421c0 -104.667 -17 -214 -51 -328c60.667 -72.667 124.334 -109 191.001 -109
c56 0 104 69 144 207c32 110 48 204.333 48 283c0 91.333 -17.333 181 -52 269c-37.333 96 -88.333 171 -153 225v-31c0 -147.333 14 -296.666 42 -447.999c1.33301 -6 -2.66699 -10 -12 -12c-9.33301 4 -25.333 55.667 -48 155c-34 148.667 -52.333 346.334 -55 593.001
c-0.666992 44.667 4.33301 71 15 79l8 -1c113.333 -145.333 195 -288.333 245 -429c50.667 -143.333 76 -305.666 76 -486.999zM457.998 1219c-30 -98 -45 -216.333 -45 -355c0 -112 31.667 -228 95 -348c50 98 75 219 75 363c0 96.667 -41.667 210 -125 340z" />
    <glyph glyph-name="uFEFA" unicode="&#xfee0;&#xfe88;" horiz-adv-x="1066" arabic-form="final" 
d="M1081 441c-5.33301 -8.66699 -25 -20.6689 -59 -36.002c-25.333 -11.333 -46.333 -17 -63 -17c-72.667 0 -133.667 53.667 -183 161c0 -248 -25 -420 -75 -516c-31.333 -60 -83.666 -90 -156.999 -90c-80.667 0 -158.334 38 -233.001 114
c-99.333 -124.667 -273.333 -187 -522 -187c-2.66699 0.666992 -6.66699 2.33398 -12 5.00098l12 15c204 38.667 355.333 123.667 454 255c-80.667 141.333 -121 309.333 -121 504c0 72 7 160.333 21 265c7.33301 27.333 13 55 17 83c10.667 72.667 21.667 129 33 169
c72 -137.333 122.333 -243.666 151 -318.999c47.333 -124.667 71 -239.334 71 -344.001c0 -152.667 -15.667 -267 -47 -343c54.667 -30 104 -45 148 -45c63.333 0 113.333 39.333 150 118c28 60 44 127.333 48 202c-0.666992 7.33301 0.666016 18.333 3.99902 33l1 52
c2 111.333 -27.667 249 -89 413c-1.33301 4 -53.666 131 -156.999 381l-17 21l24 165c14 -10 41.667 -62.667 83 -158c68.667 -158 125 -313 169 -465l33 -122c12 -41.333 30.667 -78.333 56 -111c32.667 -41.333 67.667 -65.666 105 -72.999
c17.333 -3.33301 29.333 -5 36 -5c39.333 0 79 21.667 119 65v-190zM380 -346.002c0 -51.333 -32.999 -93.333 -98.999 -126c-52.667 -26 -106.334 -39 -161.001 -39c-6 0 -9.33301 4.33301 -10 13c48 15.333 113.333 43.666 196 84.999l5 12l-6 6l-27 -3l-22 5l-20 17
c-8.66699 18 -13 31.333 -13 40c0 28 10.667 61.667 32 101c23.333 43.333 47 65 71 65c10.667 0 18.667 -1.66699 24 -5v-15c0 -7.33301 -3 -21.166 -9 -41.499s-11 -32.5 -15 -36.5l-23 3c-8 0 -14.667 -2 -20 -6l-2 -20l15 -14c20.667 1.33301 39.667 2 57 2
c18 0 27 -14.333 27 -43zM371.001 497.998c0 42 -20.5 115.499 -61.5 220.499s-75.833 169.5 -104.5 193.5c-25.333 -157.333 -38 -258 -38 -302c0 -167.333 42 -297.333 126 -390c52 86.667 78 179.334 78 278.001z" />
    <glyph glyph-name="uFEFB" unicode="&#xfedf;&#xfe8e;" horiz-adv-x="1081" arabic-form="isolated" 
d="M1042 684c0 -109.333 -12.6689 -226.67 -38.002 -352.003c-36 -178 -87 -267 -153 -267c-64 0 -123.667 22.333 -179 67c-32 26 -76.333 74.667 -133 146c-59.333 -93.333 -165 -169.666 -317 -228.999c-86.667 -34 -165 -51 -235 -51c-8 0 -14.667 3 -20 9
c2 4 5.66699 10 11 18c88.667 33.333 177.334 87.666 266.001 162.999c83.333 70.667 153 148 209 232c-73.333 158 -110 336.667 -110 536c0 88.667 8.33301 184 25 286l47 282l-2 16l7 8c7.33301 -1.33301 13.333 -5 18 -11c86 -209.333 137 -342 153 -398
c35.333 -120.667 53 -261 53 -421c0 -104.667 -17 -214 -51 -328c60.667 -72.667 124.334 -109 191.001 -109c56 0 104 69 144 207c32 110 48 204.333 48 283c0 91.333 -17.333 181 -52 269c-37.333 96 -88.333 171 -153 225v-31c0 -147.333 14 -296.666 42 -447.999
c1.33301 -6 -2.66699 -10 -12 -12c-9.33301 4 -25.333 55.667 -48 155c-34 148.667 -52.333 346.334 -55 593.001c-0.666992 44.667 4.33301 71 15 79l8 -1c113.333 -145.333 195 -288.333 245 -429c50.667 -143.333 76 -305.666 76 -486.999zM457.998 1219
c-30 -98 -45 -216.333 -45 -355c0 -112 31.667 -228 95 -348c50 98 75 219 75 363c0 96.667 -41.667 210 -125 340z" />
    <glyph glyph-name="uFEFC" unicode="&#xfee0;&#xfe8e;" horiz-adv-x="1066" arabic-form="final" 
d="M1081 441c-5.33301 -8.66699 -25 -20.6689 -59 -36.002c-25.333 -11.333 -46.333 -17 -63 -17c-72.667 0 -133.667 53.667 -183 161c0 -248 -25 -420 -75 -516c-31.333 -60 -83.666 -90 -156.999 -90c-80.667 0 -158.334 38 -233.001 114
c-99.333 -124.667 -273.333 -187 -522 -187c-2.66699 0.666992 -6.66699 2.33398 -12 5.00098l12 15c204 38.667 355.333 123.667 454 255c-80.667 141.333 -121 309.333 -121 504c0 72 7 160.333 21 265c7.33301 27.333 13 55 17 83c10.667 72.667 21.667 129 33 169
c72 -137.333 122.333 -243.666 151 -318.999c47.333 -124.667 71 -239.334 71 -344.001c0 -152.667 -15.667 -267 -47 -343c54.667 -30 104 -45 148 -45c63.333 0 113.333 39.333 150 118c28 60 44 127.333 48 202c-0.666992 7.33301 0.666016 18.333 3.99902 33l1 52
c2 111.333 -27.667 249 -89 413c-1.33301 4 -53.666 131 -156.999 381l-17 21l24 165c14 -10 41.667 -62.667 83 -158c68.667 -158 125 -313 169 -465l33 -122c12 -41.333 30.667 -78.333 56 -111c32.667 -41.333 67.667 -65.666 105 -72.999
c17.333 -3.33301 29.333 -5 36 -5c39.333 0 79 21.667 119 65v-190zM371 497.998c0 42 -20.5 115.499 -61.5 220.499s-75.833 169.5 -104.5 193.5c-25.333 -157.333 -38 -258 -38 -302c0 -167.333 42 -297.333 126 -390c52 86.667 78 179.334 78 278.001z" />
    <glyph glyph-name="u0652_u064E.liga" unicode="&#x652;&#x64e;" horiz-adv-x="1" 
d="M188 1775c-2.66699 -19.333 -2.66699 -82.667 0 -190c2 -91.333 -3 -148.333 -15 -171l-41 -74c-4 214.667 1 334.667 15 360z" />
    <glyph glyph-name="u0652_u064B.liga" unicode="&#x652;&#x64b;" horiz-adv-x="1" 
d="M258 1152c2.66699 -67.333 4 -93.667 4 -79c0 -50 -40 -98 -120 -144c-11.333 -2 -27.333 -11 -48 -27c-26 -20 -42.333 -31.333 -49 -34c-3.33301 10.667 -5 17.667 -5 21c0 20 8 67.333 24 142c54 26 118.667 66.333 194 121z" />
    <glyph glyph-name="u0652_u064D.liga" unicode="&#x652;&#x64d;" horiz-adv-x="1" 
d="M527 -684c2.66699 -67.333 4 -93.667 4 -79c0 -50 -40 -98 -120 -144c-11.333 -2 -27.333 -11 -48 -27c-26 -20 -42.333 -31.333 -49 -34c-3.33301 10.667 -5 17.667 -5 21c0 20 8 67.333 24 142c54 26 118.667 66.333 194 121z" />
    <glyph glyph-name="u0622" unicode="&#x622;" horiz-adv-x="463" arabic-form="isolated" 
d="M331 2038l4.99805 -35.001c0 -63.333 -29.667 -117.666 -89 -162.999c-42 -32 -77.667 -48 -107 -48c-7.33301 0 -17.833 1 -31.5 3s-24.167 3 -31.5 3c-44 0 -82.333 -27 -115 -81l-14 5l-3 23c28.667 88 71 133.333 127 136c6 0 15 -0.666992 27 -2s20.667 -2 26 -2
c34.667 0 70.334 16 107.001 48s59.334 65.333 68.001 100c6 4 16.333 8.33301 31 13zM419.998 958.999c0 -170.667 -13.334 -322.329 -40.001 -454.996c-40 -198.667 -105.667 -327.334 -197 -386.001c-68 -43.333 -143 -75 -225 -95c-132.667 -32 -239 -48 -319 -48
c-2 3.33301 -3.66699 6.66602 -5 9.99902l1 8l4 4c22 0 85.333 22 190 66c137.333 58 238.666 120.667 303.999 188c164.667 170.667 247 353.334 247 548.001c0 145.333 -79.333 369.666 -238 672.999c-0.666992 -49.333 2 -117.666 8 -204.999
c6.66699 -96.667 10 -165.334 10 -206.001c0 -68 -8.33301 -104.333 -25 -109l-12 15c1.33301 28 2 45.333 2 52c0 58 -6 144.5 -18 259.5s-18 201.5 -18 259.5c0 67.333 12 126.333 36 177c8.66699 -2.66699 40.334 -59.334 95.001 -170.001
c48.667 -98.667 82.334 -170.667 101.001 -216s37.667 -98 57 -158c28 -86.667 42 -157.334 42 -212.001z" />
    <glyph glyph-name="u0623" unicode="&#x623;" horiz-adv-x="521" arabic-form="isolated" 
d="M235 1863c0 -49.333 -32.666 -90.6689 -97.999 -124.002c-54 -27.333 -108 -41 -162 -41c-8 0 -12 4.66699 -12 14l98 35.5c47.333 17 80.333 33.833 99 50.5l5 10l-5 7l-25 -2l-28 2c-19.333 20 -29 40 -29 60c0 30.667 10.167 63.834 30.5 99.501
s44.5 57.834 72.5 66.501l24 -6c0 -10 -2.66699 -26.667 -8 -50c-6.66699 -25.333 -12.334 -40 -17.001 -44l-20 4c-10 0 -17.333 -2.33301 -22 -7l-3 -12c0 -8 5 -15 15 -21l40 1l23 -1c14.667 -14.667 22 -28.667 22 -42zM518.001 895.997
c0 -143.333 -17.666 -287.664 -52.999 -432.997c-32.667 -134.667 -75.667 -231.667 -129 -291c-58.667 -65.333 -152.334 -115 -281.001 -149c-114 -30 -221 -46 -321 -48l-5 10l1 8l4 4c38.667 0 111.334 26 218.001 78c126 61.333 218 120 276 176
c165.333 159.333 248 350.666 248 573.999c0 82.667 -29.667 194 -89 334c-6.66699 16 -56.334 120.333 -149.001 313c4.66699 -42 10.667 -188 18 -438c1.33301 -48.667 -7 -76 -25 -82l-13 15l2 35c0.666992 14 0 48.333 -2 103l-4 104
c-19.333 143.333 -29 254.666 -29 333.999c0 67.333 11.667 124.666 35 171.999c8 -3.33301 39.667 -60 95 -170c61.333 -121.333 114 -246 158 -374c30 -87.333 45 -179 45 -275z" />
    <glyph glyph-name="u0624" unicode="&#x624;" horiz-adv-x="614" arabic-form="isolated" 
d="M628 743c0 -130.667 -24.999 -256.997 -74.999 -378.997c-60.667 -147.333 -143 -239.333 -247 -276c-85.333 -30 -209.666 -45 -372.999 -45c-45.333 0 -71.333 6.33301 -78 19l2 5c3.33301 2 15.666 5.33301 36.999 10c224 45.333 400 146.333 528 303
c102.667 125.333 154 251 154 377c0 30 -13.333 65 -40 105c-24.667 -40.667 -62.334 -61 -113.001 -61c-44.667 0 -75 13.667 -91 41c-11.333 19.333 -17 52.666 -17 99.999c0 35.333 8.33301 81.666 25 138.999c8.66699 30 28 45 58 45c78.667 0 139 -47 181 -141
c32.667 -72.667 49 -153.334 49 -242.001zM368.001 1390c0 -49.333 -32.666 -90.6689 -97.999 -124.002c-54 -27.333 -108 -41 -162 -41c-8 0 -12 4.66699 -12 14l98 35.5c47.333 17 80.333 33.833 99 50.5l5 10l-5 7l-25 -2l-28 2c-19.333 20 -29 40 -29 60
c0 30.667 10.167 63.834 30.5 99.501s44.5 57.834 72.5 66.501l24 -6c0 -10 -2.66699 -26.667 -8 -50c-6.66699 -25.333 -12.334 -40 -17.001 -44l-20 4c-10 0 -17.333 -2.33301 -22 -7l-3 -12c0 -8 5 -15 15 -21l40 1l23 -1c14.667 -14.667 22 -28.667 22 -42z" />
    <glyph glyph-name="u0625" unicode="&#x625;" horiz-adv-x="446" arabic-form="isolated" 
d="M420 959c0 -170.667 -13.334 -322.329 -40.001 -454.996c-40 -198.667 -105.667 -327.334 -197 -386.001c-68 -43.333 -143 -75 -225 -95c-132.667 -32 -239 -48 -319 -48c-2 3.33301 -3.66699 6.66602 -5 9.99902l1 8l4 4c22 0 85.333 22 190 66
c137.333 58 238.666 120.667 303.999 188c164.667 170.667 247 353.334 247 548.001c0 145.333 -79.333 369.666 -238 672.999c-0.666992 -49.333 2 -117.666 8 -204.999c6.66699 -96.667 10 -165.334 10 -206.001c0 -68 -8.33301 -104.333 -25 -109l-12 15
c1.33301 28 2 45.333 2 52c0 58 -6 144.5 -18 259.5s-18 201.5 -18 259.5c0 67.333 12 126.333 36 177c8.66699 -2.66699 40.334 -59.334 95.001 -170.001c48.667 -98.667 82.334 -170.667 101.001 -216s37.667 -98 57 -158c28 -86.667 42 -157.334 42 -212.001z
M348.999 -208.995c0 -49.333 -32.666 -90.6689 -97.999 -124.002c-54 -27.333 -108 -41 -162 -41c-8 0 -12 4.66699 -12 14l98 35.5c47.333 17 80.333 33.833 99 50.5l5 10l-5 7l-25 -2l-28 2c-19.333 20 -29 40 -29 60c0 30.667 10.167 63.834 30.5 99.501
s44.5 57.834 72.5 66.501l24 -6c0 -10 -2.66699 -26.667 -8 -50c-6.66699 -25.333 -12.334 -40 -17.001 -44l-20 4c-10 0 -17.333 -2.33301 -22 -7l-3 -12c0 -8 5 -15 15 -21l40 1l23 -1c14.667 -14.667 22 -28.667 22 -42z" />
    <glyph glyph-name="u0626" unicode="&#x626;" horiz-adv-x="899" arabic-form="isolated" 
d="M779 305c0 -106.667 -36.3301 -206.997 -108.997 -300.997c-78 -101.333 -168.667 -152 -272 -152c-123.333 0 -219 76 -287 228c-52.667 118 -79 247.667 -79 389c0 143.333 39.333 286.666 118 429.999c22 39.333 50.667 85 86 137l260 294
c71.333 80.667 133.666 193 186.999 337l10 6l5 -11l-4 -12c-36.667 -110 -57.334 -170.667 -62.001 -182c-24 -58.667 -56.333 -113.667 -97 -165c-32.667 -33.333 -93 -99.333 -181 -198c-174.667 -206.667 -262 -386 -262 -538c0 -122.667 22 -234.334 66 -335.001
c56.667 -130 137.667 -195 243 -195c60.667 0 125.667 24.667 195 74c74.667 52.667 112 107.667 112 165c0 30 -38.667 50 -116 60c-94.667 12.667 -156 41 -184 85c-22 34.667 -33 104 -33 208c0 47.333 0.333008 73.666 1 78.999c7.33301 60.667 33 132 77 214
c52 96.667 102.333 145 151 145c50.667 0 95.667 -18.333 135 -55l4 -23c0 -20 -4.66699 -46 -14 -78c-10.667 -36.667 -22.334 -56.667 -35.001 -60l-3 2c-9.33301 12 -18.333 24.333 -27 37c-10 10.667 -26 16 -48 16c-52 0 -98 -32 -138 -96
c-36 -57.333 -54 -113 -54 -167c0 -60.667 47.333 -98 142 -112l122 -18c60.667 -8.66699 91 -78 91 -208zM368.003 1390c0 -49.333 -32.666 -90.6689 -97.999 -124.002c-54 -27.333 -108 -41 -162 -41c-8 0 -12 4.66699 -12 14l98 35.5c47.333 17 80.333 33.833 99 50.5
l5 10l-5 7l-25 -2l-28 2c-19.333 20 -29 40 -29 60c0 30.667 10.167 63.834 30.5 99.501s44.5 57.834 72.5 66.501l24 -6c0 -10 -2.66699 -26.667 -8 -50c-6.66699 -25.333 -12.334 -40 -17.001 -44l-20 4c-10 0 -17.333 -2.33301 -22 -7l-3 -12c0 -8 5 -15 15 -21l40 1
l23 -1c14.667 -14.667 22 -28.667 22 -42z" />
    <glyph glyph-name="u0627" unicode="&#x627;" horiz-adv-x="446" arabic-form="isolated" 
d="M420 959c0 -170.667 -13.334 -322.329 -40.001 -454.996c-40 -198.667 -105.667 -327.334 -197 -386.001c-68 -43.333 -143 -75 -225 -95c-132.667 -32 -239 -48 -319 -48c-2 3.33301 -3.66699 6.66602 -5 9.99902l1 8l4 4c22 0 85.333 22 190 66
c137.333 58 238.666 120.667 303.999 188c164.667 170.667 247 353.334 247 548.001c0 145.333 -79.333 369.666 -238 672.999c-0.666992 -49.333 2 -117.666 8 -204.999c6.66699 -96.667 10 -165.334 10 -206.001c0 -68 -8.33301 -104.333 -25 -109l-12 15
c1.33301 28 2 45.333 2 52c0 58 -6 144.5 -18 259.5s-18 201.5 -18 259.5c0 67.333 12 126.333 36 177c8.66699 -2.66699 40.334 -59.334 95.001 -170.001c48.667 -98.667 82.334 -170.667 101.001 -216s37.667 -98 57 -158c28 -86.667 42 -157.334 42 -212.001z" />
    <glyph glyph-name="u0628" unicode="&#x628;" horiz-adv-x="1462" arabic-form="isolated" 
d="M1557 1059c5.33301 -13.333 8.00098 -34.001 8.00098 -62.001c0 -52.667 -3.33301 -82 -10 -88c-48.667 -42.667 -92.334 -98.667 -131.001 -168c-152 -272.667 -261.333 -450 -328 -532c-160 -198 -332.333 -297 -517 -297c-154.667 0 -285.334 59 -392.001 177
c-102.667 114 -154 249.333 -154 406c0 84 11.667 154.167 35 210.5s65 114.166 125 173.499c76 75.333 236.333 113 481 113h450l3 -10c-10 -6.66699 -32 -12 -66 -16c-107.333 -12.667 -230.666 -22.667 -369.999 -30c-82 -4 -138 -6.33301 -168 -7
c-8.66699 0 -33 -5 -73 -15c-143.333 -35.333 -248.333 -98.666 -315 -189.999c-38 -52 -57 -105.667 -57 -161l4 -32c16.667 -128.667 68.667 -235.667 156 -321c91.333 -88.667 200.666 -133 327.999 -133c212.667 0 431.334 174 656.001 522l263 407
c6 8.66699 30 26.334 72 53.001zM629.001 -251.001c-14.667 -47.333 -22 -71.333 -22 -72c-10.667 -30 -22 -51 -34 -63l-105 60c12 31.333 29 79 51 143c35.333 -14 56 -22.667 62 -26c26.667 -13.333 42.667 -27.333 48 -42z" />
    <glyph glyph-name="u0629" unicode="&#x629;" horiz-adv-x="341" arabic-form="isolated" 
d="M311 1449c0 -46.667 1.33301 -73.002 4 -79.002c0 -33.333 -13.333 -62.666 -40 -87.999c-8.66699 -8.66699 -36 -28 -82 -58c-22 -14.667 -54 -34.667 -96 -60l-2 18c0 28.667 6.66699 76.334 20 143.001l68 35c26 13.333 68.667 43 128 89zM291 560.998
c-8.66699 -43.333 -26.666 -82.6689 -53.999 -118.002c-32.667 -42 -68.334 -63 -107.001 -63c-40 0 -67.167 7.83301 -81.5 23.5s-21.5 43.834 -21.5 84.501c0 72.667 14 150.334 42 233.001c36 106.667 82.333 160 139 160c68.667 0 103 -65 103 -195
c0 -63.333 -6.66699 -105 -20 -125zM250.001 620.995c0 54.667 -23 82 -69 82c-28 0 -51 -15.667 -69 -47c-16 -26.667 -24 -55 -24 -85c10 -10 17.333 -15 22 -15h42c40 0 72.667 21.667 98 65z" />
    <glyph glyph-name="u062A" unicode="&#x62a;" horiz-adv-x="1462" arabic-form="isolated" 
d="M976 1442c0 -8.66699 0.832031 -21.666 2.49902 -38.999s2.5 -30.333 2.5 -39c0 -54.667 -40.333 -103.667 -121 -147l-75 -50c-3.33301 -2.66699 -10.666 -6.33398 -21.999 -11.001c-2 6.66699 -3 13.667 -3 21v42c0 6 7 39.333 21 100
c23.333 10.667 46.333 22.334 69 35.001c37.333 21.333 79.333 50.666 126 87.999zM1557 1059c5.33301 -13.333 8.00098 -34.001 8.00098 -62.001c0 -52.667 -3.33301 -82 -10 -88c-48.667 -42.667 -92.334 -98.667 -131.001 -168c-152 -272.667 -261.333 -450 -328 -532
c-160 -198 -332.333 -297 -517 -297c-154.667 0 -285.334 59 -392.001 177c-102.667 114 -154 249.333 -154 406c0 84 11.667 154.167 35 210.5s65 114.166 125 173.499c76 75.333 236.333 113 481 113h450l3 -10c-10 -6.66699 -32 -12 -66 -16
c-107.333 -12.667 -230.666 -22.667 -369.999 -30c-82 -4 -138 -6.33301 -168 -7c-8.66699 0 -33 -5 -73 -15c-143.333 -35.333 -248.333 -98.666 -315 -189.999c-38 -52 -57 -105.667 -57 -161l4 -32c16.667 -128.667 68.667 -235.667 156 -321
c91.333 -88.667 200.666 -133 327.999 -133c212.667 0 431.334 174 656.001 522l263 407c6 8.66699 30 26.334 72 53.001z" />
    <glyph glyph-name="u062B" unicode="&#x62b;" horiz-adv-x="1462" arabic-form="isolated" 
d="M1557 1059c5.33301 -13.333 8.00098 -34.001 8.00098 -62.001c0 -52.667 -3.33301 -82 -10 -88c-48.667 -42.667 -92.334 -98.667 -131.001 -168c-152 -272.667 -261.333 -450 -328 -532c-160 -198 -332.333 -297 -517 -297c-154.667 0 -285.334 59 -392.001 177
c-102.667 114 -154 249.333 -154 406c0 84 11.667 154.167 35 210.5s65 114.166 125 173.499c76 75.333 236.333 113 481 113h450l3 -10c-10 -6.66699 -32 -12 -66 -16c-107.333 -12.667 -230.666 -22.667 -369.999 -30c-82 -4 -138 -6.33301 -168 -7
c-8.66699 0 -33 -5 -73 -15c-143.333 -35.333 -248.333 -98.666 -315 -189.999c-38 -52 -57 -105.667 -57 -161l4 -32c16.667 -128.667 68.667 -235.667 156 -321c91.333 -88.667 200.666 -133 327.999 -133c212.667 0 431.334 174 656.001 522l263 407
c6 8.66699 30 26.334 72 53.001zM1059 1520c0 -22 -5.99707 -48.332 -17.9971 -78.999c-14 -36 -30 -54 -48 -54l-14 12l-5 13l-3 3c-18.667 8 -31.334 12 -38.001 12c-26.667 0 -55.667 -15.333 -87 -46s-50.333 -59.667 -57 -87
c-8.66699 -34 -21.334 -76.333 -38.001 -127l-5 52c0 61.333 23.333 134.666 70 219.999c52 94.667 104.333 142 157 142c19.333 0 37.666 -5.33301 54.999 -16c20.667 -12 31 -27 31 -45z" />
    <glyph glyph-name="u062C" unicode="&#x62c;" horiz-adv-x="857" arabic-form="isolated" 
d="M1187 -138c-33.333 -23.333 -113.335 -35.002 -240.002 -35.002c-150.667 0 -309.667 26.667 -477 80c-285.333 90.667 -428 265.334 -428 524.001c0 74.667 28 170.667 84 288c52.667 110.667 107.667 195 165 253l162 159c-3.33301 12.667 -15.666 33 -36.999 61
c-14 18.667 -21 50 -21 94c0 14.667 4.33301 41.667 13 81l17 77c6 26 69.333 69 190 129c94 46.667 152.667 70 176 70c7.33301 0 17.833 -5.83301 31.5 -17.5s20.5 -21.167 20.5 -28.5c-2 -58.667 -7.33301 -134.667 -16 -228c-23.333 -80 -87 -167 -191 -261l-173 -156
c-236.667 -213.333 -355 -426.333 -355 -639c0 -76.667 41.667 -152.667 125 -228c68 -62 146.667 -109 236 -141c64.667 -23.333 154.667 -43.666 270 -60.999c124 -18.667 226.333 -28 307 -28c50.667 0 97.334 6 140.001 18l6 -3zM713.998 542.998
c-16.667 -68 -35.335 -113 -56.002 -135l-107 60c2.66699 16 20.334 63 53.001 141c36.667 -14.667 57.334 -23 62.001 -25c26 -13.333 42 -27 48 -41zM783.997 1479c-46.667 -8 -105.334 -26.335 -176.001 -55.002c-82 -34 -133.667 -66.333 -155 -97
c18.667 -28 35.334 -56.333 50.001 -85c1.33301 -17.333 2 -31.666 2 -42.999s-0.666992 -19.666 -2 -24.999c78 60 132 105 162 135c54 53.333 93.667 110 119 170z" />
    <glyph glyph-name="u062D" unicode="&#x62d;" horiz-adv-x="857" arabic-form="isolated" 
d="M1187 -138c-33.333 -23.333 -113.335 -35.002 -240.002 -35.002c-150.667 0 -309.667 26.667 -477 80c-285.333 90.667 -428 265.334 -428 524.001c0 74.667 28 170.667 84 288c52.667 110.667 107.667 195 165 253l162 159c-3.33301 12.667 -15.666 33 -36.999 61
c-14 18.667 -21 50 -21 94c0 14.667 4.33301 41.667 13 81l17 77c6 26 69.333 69 190 129c94 46.667 152.667 70 176 70c7.33301 0 17.833 -5.83301 31.5 -17.5s20.5 -21.167 20.5 -28.5c-2 -58.667 -7.33301 -134.667 -16 -228c-23.333 -80 -87 -167 -191 -261l-173 -156
c-236.667 -213.333 -355 -426.333 -355 -639c0 -76.667 41.667 -152.667 125 -228c68 -62 146.667 -109 236 -141c64.667 -23.333 154.667 -43.666 270 -60.999c124 -18.667 226.333 -28 307 -28c50.667 0 97.334 6 140.001 18l6 -3zM783.998 1479
c-46.667 -8 -105.334 -26.335 -176.001 -55.002c-82 -34 -133.667 -66.333 -155 -97c18.667 -28 35.334 -56.333 50.001 -85c1.33301 -17.333 2 -31.666 2 -42.999s-0.666992 -19.666 -2 -24.999c78 60 132 105 162 135c54 53.333 93.667 110 119 170z" />
    <glyph glyph-name="u062E" unicode="&#x62e;" horiz-adv-x="857" arabic-form="isolated" 
d="M376 1828c-16.667 -68 -35.333 -113 -56 -135l-107 60c11.333 33.333 29 80.666 53 141.999l62 -24c22.667 -11.333 38.667 -25.666 48 -42.999zM1187 -138c-33.333 -23.333 -113.335 -35.002 -240.002 -35.002c-150.667 0 -309.667 26.667 -477 80
c-285.333 90.667 -428 265.334 -428 524.001c0 74.667 28 170.667 84 288c52.667 110.667 107.667 195 165 253l162 159c-3.33301 12.667 -15.666 33 -36.999 61c-14 18.667 -21 50 -21 94c0 14.667 4.33301 41.667 13 81l17 77c6 26 69.333 69 190 129
c94 46.667 152.667 70 176 70c7.33301 0 17.833 -5.83301 31.5 -17.5s20.5 -21.167 20.5 -28.5c-2 -58.667 -7.33301 -134.667 -16 -228c-23.333 -80 -87 -167 -191 -261l-173 -156c-236.667 -213.333 -355 -426.333 -355 -639c0 -76.667 41.667 -152.667 125 -228
c68 -62 146.667 -109 236 -141c64.667 -23.333 154.667 -43.666 270 -60.999c124 -18.667 226.333 -28 307 -28c50.667 0 97.334 6 140.001 18l6 -3zM783.999 1479c-46.667 -8 -105.334 -26.335 -176.001 -55.002c-82 -34 -133.667 -66.333 -155 -97
c18.667 -28 35.334 -56.333 50.001 -85c1.33301 -17.333 2 -31.666 2 -42.999s-0.666992 -19.666 -2 -24.999c78 60 132 105 162 135c54 53.333 93.667 110 119 170z" />
    <glyph glyph-name="u062F" unicode="&#x62f;" horiz-adv-x="761" arabic-form="isolated" 
d="M764 687c0 -118 -23.3281 -231.337 -69.9951 -340.004c-52.667 -122.667 -125.334 -211 -218.001 -265c-32.667 -19.333 -105 -36.333 -217 -51c-96 -12.667 -178.333 -19 -247 -19c-42 0 -67 1.66699 -75 5l-5 6l8 7c41.333 -4 103 6.66699 185 32
c40.667 12.667 89 31 145 55c38 22.667 71.667 46.334 101 71.001c79.333 66.667 133.666 117.334 162.999 152.001c38 44.667 76.333 107.334 115 188.001c42.667 88.667 64 163 64 223c0 36 -19.833 71.333 -59.5 106s-77.834 52 -114.501 52
c-36 0 -86.667 -16.667 -152 -50c-60.667 -30.667 -106 -60.667 -136 -90l-3 -20c0 -11.333 19.333 -34 58 -68c46.667 -41.333 82 -81.333 106 -120c38.667 -62.667 58 -133.667 58 -213c0 -24.667 -2.33301 -42 -7 -52c0 -8.66699 -5.66699 -13.667 -17 -15l-11 9
c-2 16.667 -7 40.334 -15 71.001c-16 35.333 -65.333 89.333 -148 162c-66 58 -99 122.333 -99 193c0 80.667 7.66699 135.667 23 165c23.333 44.667 77.666 90.5 162.999 137.5s154.333 70.5 207 70.5c46.667 0 92 -27 136 -81c31.333 -38 50.666 -89 57.999 -153
c2.66699 -23.333 4 -79.333 4 -168z" />
    <glyph glyph-name="u0630" unicode="&#x630;" horiz-adv-x="761" arabic-form="isolated" 
d="M423 1482l-22 -68c-11.333 -35.333 -23.333 -58.333 -36 -69l-105 62c16 46.667 33.667 93.667 53 141c64 -21.333 100.667 -43.333 110 -66zM764 687c0 -118 -23.3281 -231.337 -69.9951 -340.004c-52.667 -122.667 -125.334 -211 -218.001 -265
c-32.667 -19.333 -105 -36.333 -217 -51c-96 -12.667 -178.333 -19 -247 -19c-42 0 -67 1.66699 -75 5l-5 6l8 7c41.333 -4 103 6.66699 185 32c40.667 12.667 89 31 145 55c38 22.667 71.667 46.334 101 71.001c79.333 66.667 133.666 117.334 162.999 152.001
c38 44.667 76.333 107.334 115 188.001c42.667 88.667 64 163 64 223c0 36 -19.833 71.333 -59.5 106s-77.834 52 -114.501 52c-36 0 -86.667 -16.667 -152 -50c-60.667 -30.667 -106 -60.667 -136 -90l-3 -20c0 -11.333 19.333 -34 58 -68
c46.667 -41.333 82 -81.333 106 -120c38.667 -62.667 58 -133.667 58 -213c0 -24.667 -2.33301 -42 -7 -52c0 -8.66699 -5.66699 -13.667 -17 -15l-11 9c-2 16.667 -7 40.334 -15 71.001c-16 35.333 -65.333 89.333 -148 162c-66 58 -99 122.333 -99 193
c0 80.667 7.66699 135.667 23 165c23.333 44.667 77.666 90.5 162.999 137.5s154.333 70.5 207 70.5c46.667 0 92 -27 136 -81c31.333 -38 50.666 -89 57.999 -153c2.66699 -23.333 4 -79.333 4 -168z" />
    <glyph glyph-name="u0631" unicode="&#x631;" horiz-adv-x="683" arabic-form="isolated" 
d="M674 829c-17.333 22 -29.335 33 -36.002 33c-12 0 -24.333 -11 -37 -33c-7.33301 -26.667 -27.666 -152 -60.999 -376c-21.333 -142 -58 -243.333 -110 -304c-71.333 -82.667 -188 -123.334 -350 -122.001l-135 1c-81.333 0.666992 -124 8.66699 -128 24l7 6
c290.667 0 489.334 118.333 596.001 355c20.667 45.333 41.667 127.333 63 246l36 198c20 110 46.333 165 79 165c28 0 51.333 -21.667 70 -65c16 -36.667 24 -71 24 -103c0 -17.333 -6 -25.666 -18 -24.999z" />
    <glyph glyph-name="u0632" unicode="&#x632;" horiz-adv-x="698" arabic-form="isolated" 
d="M456 1465c-19.333 -72 -37.999 -117 -55.999 -135l-107 60c0.666992 4 18 51.333 52 142c28 -10 48.667 -18.333 62 -25c27.333 -14 43.666 -28 48.999 -42zM682.001 844l-7.99609 -0.00195312c-6.66699 8.66699 -18.667 19.667 -36 33c-12 0 -24.333 -11 -37 -33
c-6.66699 -25.333 -27 -150.666 -61 -375.999c-21.333 -140.667 -58 -241.667 -110 -303c-70.667 -83.333 -187.334 -124.333 -350.001 -123l-135 1c-81.333 0.666992 -124 8.66699 -128 24l7 6c292 0 490.667 118.333 596 355c23.333 52.667 43 125.334 59 218.001
c25.333 144 38.666 219.333 39.999 226c25.333 110 51.666 165 78.999 165s50.666 -21.667 69.999 -65c16 -36 24 -70 24 -102c0 -17.333 -3.33301 -26 -10 -26z" />
    <glyph glyph-name="u0633" unicode="&#x633;" horiz-adv-x="1179" arabic-form="isolated" 
d="M1126 1555l3.00391 -5.00098c-6 -27.333 -88.333 -84.333 -247 -171l-438 -246l-21 -16c-228.667 -176.667 -343 -342 -343 -496c0 -125.333 24.333 -235.333 73 -330c61.333 -119.333 148.666 -179 261.999 -179c79.333 0 155.5 39 228.5 117s109.5 157 109.5 237
c0 106 -64.667 196.667 -194 272l-6 8c2 32.667 9.66699 81 23 145c21.333 -4.66699 69.666 -39.667 144.999 -105c20.667 -5.33301 35.667 -8 45 -8c47.333 0 88 14 122 42c37.333 30 56 68 56 114c-0.666992 5.33301 -4 38 -10 98c-0.666992 5.33301 3.33301 13.333 12 24
l6 -2l25 -127l14 -5c19.333 4.66699 36.333 23 51 55c12.667 27.333 19 52.666 19 75.999c0 19.333 -4.16699 48.333 -12.5 87s-12.5 67.667 -12.5 87c0 15.333 3.66699 23 11 23l7 -3c14 -24 28 -68.333 42 -133c13.333 -61.333 20 -108.333 20 -141
c0 -58 -10 -109 -30 -153c-26 -57.333 -65 -86 -117 -86c-6.66699 -32 -26.334 -58.667 -59.001 -80c-30 -20 -62.333 -30 -97 -30c-11.333 0 -22 1.66699 -32 5c8.66699 -51.333 13 -126 13 -224c0 -32.667 -10 -80 -30 -142c-66 -205.333 -167 -308 -303 -308
c-130.667 0 -236.334 72.667 -317.001 218c-68 122 -102 253.667 -102 395v38c0 22.667 4.33301 56 13 100c27.333 138.667 97 258.334 209 359.001c78 70 197.667 146.333 359 229l488 250c5.33301 2.66699 10.333 6.33398 15 11.001z" />
    <glyph glyph-name="u0634" unicode="&#x634;" horiz-adv-x="1179" arabic-form="isolated" 
d="M836 1770c0 -21.333 -6.33203 -47.6689 -18.999 -79.002c-14.667 -36 -30.667 -54 -48 -54c-6.66699 0 -14.334 10 -23.001 30c-17.333 7.33301 -29.666 11 -36.999 11c-24.667 0 -53.334 -16.333 -86.001 -49c-30 -30 -49 -58 -57 -84l-38 -128
c-4.66699 20.667 -7 37.334 -7 50.001c0 60.667 24.333 134.334 73 221.001c54 96 108.667 144 164 144c34 0 60 -20.667 78 -62zM1126 1555l3.00391 -5.00098c-6 -27.333 -88.333 -84.333 -247 -171l-438 -246l-21 -16c-228.667 -176.667 -343 -342 -343 -496
c0 -125.333 24.333 -235.333 73 -330c61.333 -119.333 148.666 -179 261.999 -179c79.333 0 155.5 39 228.5 117s109.5 157 109.5 237c0 106 -64.667 196.667 -194 272l-6 8c2 32.667 9.66699 81 23 145c21.333 -4.66699 69.666 -39.667 144.999 -105
c20.667 -5.33301 35.667 -8 45 -8c47.333 0 88 14 122 42c37.333 30 56 68 56 114c-0.666992 5.33301 -4 38 -10 98c-0.666992 5.33301 3.33301 13.333 12 24l6 -2l25 -127l14 -5c19.333 4.66699 36.333 23 51 55c12.667 27.333 19 52.666 19 75.999
c0 19.333 -4.16699 48.333 -12.5 87s-12.5 67.667 -12.5 87c0 15.333 3.66699 23 11 23l7 -3c14 -24 28 -68.333 42 -133c13.333 -61.333 20 -108.333 20 -141c0 -58 -10 -109 -30 -153c-26 -57.333 -65 -86 -117 -86c-6.66699 -32 -26.334 -58.667 -59.001 -80
c-30 -20 -62.333 -30 -97 -30c-11.333 0 -22 1.66699 -32 5c8.66699 -51.333 13 -126 13 -224c0 -32.667 -10 -80 -30 -142c-66 -205.333 -167 -308 -303 -308c-130.667 0 -236.334 72.667 -317.001 218c-68 122 -102 253.667 -102 395v38c0 22.667 4.33301 56 13 100
c27.333 138.667 97 258.334 209 359.001c78 70 197.667 146.333 359 229l488 250c5.33301 2.66699 10.333 6.33398 15 11.001z" />
    <glyph glyph-name="u0635" unicode="&#x635;" horiz-adv-x="1285" arabic-form="isolated" 
d="M894 633c2 -30.667 8.00391 -70.667 18.0039 -120c1.33301 -6 -1.33398 -10 -8.00098 -12l-13 9l-22 109c-49.333 -18.667 -111 -28 -185 -28c-1.33301 -16.667 -1.33301 -39 0 -67c1.33301 -36.667 2 -59.334 2 -68.001c0 -105.333 -27.667 -211.333 -83 -318
c-65.333 -125.333 -145.333 -188 -240 -188c-110.667 0 -192 62.333 -244 187c-37.333 90 -56 199.667 -56 329c0 166.667 92.333 325 277 475l224 180c54 44.667 92.333 91.667 115 141l9 7l6 -12c0 -65.333 -58.667 -148.333 -176 -249l-234 -197
c-39.333 -34 -88 -106.333 -146 -217c-30 -57.333 -45 -107 -45 -149c0 -86 19 -157.333 57 -214c43.333 -66 106 -99 188 -99c75.333 0 143.666 42.333 204.999 127c56.667 78 85 156 85 234l-4 10c-20 50 -36.333 85 -49 105c-19.333 30.667 -46 57.667 -80 81
c-7.33301 46.667 -10.333 108.334 -9 185.001c1.33301 4.66699 3.66602 8 6.99902 10l15 -10c49.333 -68.667 112.666 -103 189.999 -103c44.667 0 91.667 11.667 141 35c0 14 -0.5 34.833 -1.5 62.5s-1.5 48.5 -1.5 62.5c0 83.333 15.333 162.333 46 237
c36.667 88.667 88 148.334 154 179.001c104 48 158.667 72 164 72c16.667 0 25.667 -4.66699 27 -14c13.333 -78 20 -158.333 20 -241c-0.666992 -4 -3 -16.333 -7 -37c-20 -104 -59.667 -199 -119 -285c-62 -90.667 -137.667 -160.334 -227 -209.001zM1174 1207
c0 6.66699 -2.66699 10 -8 10c-6.66699 0 -30 -7.33301 -70 -22c-66 -24 -120.833 -66.833 -164.5 -128.5s-65.5 -127.5 -65.5 -197.5c0 -8.66699 0.333008 -17 1 -25l2 -23c59.333 30 123.333 85.333 192 166c75.333 88.667 113 162 113 220z" />
    <glyph glyph-name="u0636" unicode="&#x636;" horiz-adv-x="1285" arabic-form="isolated" 
d="M701 1550c-8.66699 -34.667 -15.334 -58.668 -20.001 -72.001c-11.333 -31.333 -23.666 -51.666 -36.999 -60.999l-105 60l52 143c63.333 -18.667 100 -42 110 -70zM894 632.999c2 -30.667 8.00391 -70.667 18.0039 -120c1.33301 -6 -1.33398 -10 -8.00098 -12l-13 9
l-22 109c-49.333 -18.667 -111 -28 -185 -28c-1.33301 -16.667 -1.33301 -39 0 -67c1.33301 -36.667 2 -59.334 2 -68.001c0 -105.333 -27.667 -211.333 -83 -318c-65.333 -125.333 -145.333 -188 -240 -188c-110.667 0 -192 62.333 -244 187
c-37.333 90 -56 199.667 -56 329c0 166.667 92.333 325 277 475l224 180c54 44.667 92.333 91.667 115 141l9 7l6 -12c0 -65.333 -58.667 -148.333 -176 -249l-234 -197c-39.333 -34 -88 -106.333 -146 -217c-30 -57.333 -45 -107 -45 -149c0 -86 19 -157.333 57 -214
c43.333 -66 106 -99 188 -99c75.333 0 143.666 42.333 204.999 127c56.667 78 85 156 85 234l-4 10c-20 50 -36.333 85 -49 105c-19.333 30.667 -46 57.667 -80 81c-7.33301 46.667 -10.333 108.334 -9 185.001c1.33301 4.66699 3.66602 8 6.99902 10l15 -10
c49.333 -68.667 112.666 -103 189.999 -103c44.667 0 91.667 11.667 141 35c0 14 -0.5 34.833 -1.5 62.5s-1.5 48.5 -1.5 62.5c0 83.333 15.333 162.333 46 237c36.667 88.667 88 148.334 154 179.001c104 48 158.667 72 164 72c16.667 0 25.667 -4.66699 27 -14
c13.333 -78 20 -158.333 20 -241c-0.666992 -4 -3 -16.333 -7 -37c-20 -104 -59.667 -199 -119 -285c-62 -90.667 -137.667 -160.334 -227 -209.001zM1174 1207c0 6.66699 -2.66699 10 -8 10c-6.66699 0 -30 -7.33301 -70 -22c-66 -24 -120.833 -66.833 -164.5 -128.5
s-65.5 -127.5 -65.5 -197.5c0 -8.66699 0.333008 -17 1 -25l2 -23c59.333 30 123.333 85.333 192 166c75.333 88.667 113 162 113 220z" />
    <glyph glyph-name="u0637" unicode="&#x637;" horiz-adv-x="1187" arabic-form="isolated" 
d="M1147 956c0 -38.667 -11.999 -104.662 -35.999 -197.995c-29.333 -114.667 -80 -225 -152 -331c-73.333 -108.667 -157.666 -196 -252.999 -262l3 -212l-16 -3l-14 12c0 33.333 -6 90.333 -18 171c-100.667 -50 -207.334 -84.333 -320.001 -103
c-80 -13.333 -192.667 -22.333 -338 -27c-6 0 -11 3 -15 9l4 10c143.333 41.333 251.333 76.666 324 105.999c105.333 42 206.666 95.333 303.999 160c5.33301 3.33301 16.333 11.666 33 24.999c-0.666992 53.333 1.66602 113.666 6.99902 180.999
c7.33301 91.333 17.666 149.666 30.999 174.999c-6 213.333 -11.667 342.666 -17 387.999c-19.333 164.667 -62 287 -128 367c-27.333 -95.333 -46 -246 -56 -452c0 -3.33301 -3 -7 -9 -11c-6 2.66699 -9.33301 6.33398 -10 11.001c-5.33301 28 -8 110.667 -8 248
c0 44 7.66699 130.667 23 260c18 152.667 36.333 235 55 247l15 -12c124.667 -221.333 187 -458.333 187 -711c0 -84 -4.66699 -161 -14 -231c68.667 117.333 179.334 222.666 332.001 315.999c32.667 20 52.334 30 59.001 30c16 0 25.333 -23.333 28 -70
c-0.666992 8 -1 -23 -1 -93zM1055 864.005c0 12.667 -4.66699 19.334 -14 20.001c-120.667 -100 -199.334 -174 -236.001 -222c-69.333 -90.667 -101.333 -190.334 -96 -299.001c70.667 64 138.334 139.667 203.001 227c76.667 103.333 124 192.333 142 267
c0.666992 2.66699 1 5 1 7z" />
    <glyph glyph-name="u0638" unicode="&#x638;" horiz-adv-x="1187" arabic-form="isolated" 
d="M1047 1399c-14.667 -47.333 -22 -71.332 -22 -71.999c-10.667 -30 -22 -51 -34 -63l-107 61c15.333 47.333 33.666 94.666 54.999 141.999c36.667 -14.667 57 -23 61 -25c24.667 -12.667 40.334 -27 47.001 -43zM1147 956.001
c0 -38.667 -11.999 -104.662 -35.999 -197.995c-29.333 -114.667 -80 -225 -152 -331c-73.333 -108.667 -157.666 -196 -252.999 -262l3 -212l-16 -3l-14 12c0 33.333 -6 90.333 -18 171c-100.667 -50 -207.334 -84.333 -320.001 -103
c-80 -13.333 -192.667 -22.333 -338 -27c-6 0 -11 3 -15 9l4 10c143.333 41.333 251.333 76.666 324 105.999c105.333 42 206.666 95.333 303.999 160c5.33301 3.33301 16.333 11.666 33 24.999c-0.666992 53.333 1.66602 113.666 6.99902 180.999
c7.33301 91.333 17.666 149.666 30.999 174.999c-6 213.333 -11.667 342.666 -17 387.999c-19.333 164.667 -62 287 -128 367c-27.333 -95.333 -46 -246 -56 -452c0 -3.33301 -3 -7 -9 -11c-6 2.66699 -9.33301 6.33398 -10 11.001c-5.33301 28 -8 110.667 -8 248
c0 44 7.66699 130.667 23 260c18 152.667 36.333 235 55 247l15 -12c124.667 -221.333 187 -458.333 187 -711c0 -84 -4.66699 -161 -14 -231c68.667 117.333 179.334 222.666 332.001 315.999c32.667 20 52.334 30 59.001 30c16 0 25.333 -23.333 28 -70
c-0.666992 8 -1 -23 -1 -93zM1055 864.006c0 12.667 -4.66699 19.334 -14 20.001c-120.667 -100 -199.334 -174 -236.001 -222c-69.333 -90.667 -101.333 -190.334 -96 -299.001c70.667 64 138.334 139.667 203.001 227c76.667 103.333 124 192.333 142 267
c0.666992 2.66699 1 5 1 7z" />
    <glyph glyph-name="u0639" unicode="&#x639;" horiz-adv-x="914" arabic-form="isolated" 
d="M248 -25c-55.333 0 -101.999 13.3311 -139.999 39.998c-44 30.667 -66 72.334 -66 125.001c0 109.333 33 221.333 99 336c43.333 76 115 171 215 285c-77.333 17.333 -120.666 28.333 -129.999 33c-36.667 18 -55 53.333 -55 106c0 125.333 53.333 223.333 160 294
c53.333 35.333 99 53 137 53c75.333 0 113 -55.333 113 -166c0 -16 -0.666992 -35 -2 -57l-3 -50c40.667 22 85.667 55.333 135 100l122 115h8l5 -8c-6 -30 -19.333 -80.667 -40 -152l-233 -213l-12 -202c-0.666992 -11.333 -7.33398 -19 -20.001 -23l-7 8v180
c-123.333 -120.667 -196 -193 -218 -217c-64.667 -70.667 -125 -151 -181 -241c-25.333 -40.667 -38 -66.667 -38 -78c0 -62 56 -93 168 -93c166.667 0 327 54 481 162c133.333 93.333 251.666 218 354.999 374l5 2l6 -7c1.33301 -10.667 -8.66699 -37.667 -30 -81
c-32.667 -67.333 -89.667 -153.666 -171 -258.999c-146 -190 -333 -308 -561 -354c-39.333 -8 -73.333 -12 -102 -12zM531.001 950.998c-2.66699 80 -32.001 120 -88.001 120c-67.333 0 -124.666 -29 -171.999 -87l-6 -17l6 -10c52 -17.333 101.667 -26 149 -26
c42 0 79 6.66699 111 20z" />
    <glyph glyph-name="u063A" unicode="&#x63a;" horiz-adv-x="914" arabic-form="isolated" 
d="M385 1588l-21.001 -67.001c-11.333 -36.667 -23.333 -59 -36 -67l-105 61c8 34 25.333 81.333 52 142c34.667 -14 55.334 -22.667 62.001 -26c22 -11.333 38 -25.666 48 -42.999zM247.999 -25.001c-55.333 0 -101.999 13.3311 -139.999 39.998
c-44 30.667 -66 72.334 -66 125.001c0 109.333 33 221.333 99 336c43.333 76 115 171 215 285c-77.333 17.333 -120.666 28.333 -129.999 33c-36.667 18 -55 53.333 -55 106c0 125.333 53.333 223.333 160 294c53.333 35.333 99 53 137 53c75.333 0 113 -55.333 113 -166
c0 -16 -0.666992 -35 -2 -57l-3 -50c40.667 22 85.667 55.333 135 100l122 115h8l5 -8c-6 -30 -19.333 -80.667 -40 -152l-233 -213l-12 -202c-0.666992 -11.333 -7.33398 -19 -20.001 -23l-7 8v180c-123.333 -120.667 -196 -193 -218 -217
c-64.667 -70.667 -125 -151 -181 -241c-25.333 -40.667 -38 -66.667 -38 -78c0 -62 56 -93 168 -93c166.667 0 327 54 481 162c133.333 93.333 251.666 218 354.999 374l5 2l6 -7c1.33301 -10.667 -8.66699 -37.667 -30 -81c-32.667 -67.333 -89.667 -153.666 -171 -258.999
c-146 -190 -333 -308 -561 -354c-39.333 -8 -73.333 -12 -102 -12zM531 950.997c-2.66699 80 -32.001 120 -88.001 120c-67.333 0 -124.666 -29 -171.999 -87l-6 -17l6 -10c52 -17.333 101.667 -26 149 -26c42 0 79 6.66699 111 20z" />
    <glyph glyph-name="u0641" unicode="&#x641;" horiz-adv-x="1713" arabic-form="isolated" 
d="M1732 675c0 -22.667 -6.50391 -62.9961 -19.5039 -120.996s-24.5 -97.667 -34.5 -119c-72.667 -158 -268.334 -304.333 -587.001 -439c-146.667 -62 -302.334 -93 -467.001 -93c-168.667 0 -304 36.667 -406 110c-117.333 83.333 -176 206.333 -176 369
c0 141.333 78 268.333 234 381c34.667 24.667 101.334 49.667 200.001 75l335 85c112.667 28.667 217 75.667 313 141c31.333 21.333 73.333 62.333 126 123c-23.333 11.333 -55.333 31.333 -96 60c14.667 30 38.334 73.333 71.001 130
c68.667 -26.667 110.334 -55 125.001 -85l-21 -70c-11.333 -29.333 -24.666 -49.333 -39.999 -60l-22 15c-108 -140 -231.667 -234.333 -371 -283l-560 -196c-36 -12.667 -81 -40.667 -135 -84c-60.667 -48.667 -93.667 -88.334 -99 -119.001
c-2.66699 -15.333 -4 -38 -4 -68c0 -9.33301 6.33301 -35 19 -77c58 -192.667 255 -289 591 -289c148.667 0 331.667 52 549 156c240.667 115.333 377.334 235 410.001 359c0.666992 2.66699 1 6 1 10c0 24 -16.667 48.333 -50 73c-18 -44 -60.667 -64 -128 -60
c-26 9.33301 -39 24.333 -39 45c0 149.333 31.333 231.666 94 246.999c18.667 -3.33301 50.334 -20 95.001 -50c36.667 -24.667 61 -47.334 73 -68.001c12.667 -22.667 19 -55.334 19 -98.001z" />
    <glyph glyph-name="u0642" unicode="&#x642;" horiz-adv-x="849" arabic-form="isolated" 
d="M370 -2c-110.667 0 -198.001 60.667 -262.001 182c-52 98.667 -78 208 -78 328c0 124 36.667 254 110 390c44 82 132.333 206.667 265 374c48.667 62 102.334 134.333 161.001 217l-258 -42c-3.33301 0.666992 -7.66602 1.33398 -12.999 2.00098
c0 14.667 20 63.334 60 146.001l184 33c18.667 5.33301 47 11 85 17l5 -8c1.33301 -8 2 -18 2 -30c0 -66.667 -46.333 -162.334 -139 -287.001l-190 -243c-64 -81.333 -119.333 -180.333 -166 -297c-50.667 -126.667 -76 -225.667 -76 -297
c0 -8.66699 2.33301 -21.334 7 -38.001c54 -193.333 157 -290 309 -290c93.333 0 176 61.333 248 184c62.667 107.333 94 212 94 314c0 76.667 -29.667 134.334 -89 173.001c-21.333 -75.333 -60 -113 -116 -113c-26.667 0 -51.834 10.5 -75.501 31.5
s-37.5 44.833 -41.5 71.5c-2 13.333 -3 39.666 -3 78.999c0 21.333 4.33301 51 13 89c10 44 20.667 68.333 32 73c23.333 9.33301 43.333 14 60 14c34.667 0 72 -15.333 112 -46c107.333 -82 161 -224 161 -426c0 -144 -30.667 -273.667 -92 -389
c-75.333 -141.333 -178.333 -212 -309 -212z" />
    <glyph glyph-name="u0643" unicode="&#x643;" horiz-adv-x="984" arabic-form="isolated" 
d="M1074 2254c0 -7.33301 -14.667 -54.998 -44 -142.998c-31.333 -94.667 -47.333 -144 -48 -148l-36 -283c-0.666992 -6.66699 -5.33398 -14.334 -14.001 -23.001c-2 13.333 -3 37 -3 71c0 111.333 7.66699 199 23 263c-80.667 -86 -146 -149.333 -196 -190
c-59.333 -48 -144.666 -99.333 -255.999 -154c-128 -62.667 -225.333 -94 -292 -94l-8 7l3 5c170 68 287.667 123 353 165c80 51.333 175.333 137.666 286 258.999c115.333 126.667 185 218.334 209 275l10 7c8.66699 0.666992 13 -5 13 -17zM1076 1320
c-10 -48 -30 -99 -60 -153c-31.333 -57.333 -64.333 -100.666 -99 -129.999c-30 -25.333 -84.333 -62 -163 -110c38 -139.333 57 -279.666 57 -420.999c0 -358.667 -96 -560.667 -288 -606c-48 -11.333 -78.667 -17 -92 -17c-100 0 -176.667 48.667 -230 146
c-42.667 78 -64 171.667 -64 281c0 115.333 26.333 214 79 296c46 72 121 142.667 225 212l-70 502c-2 60 -5.66699 146.667 -11 260c24.667 -6.66699 71.667 -56.334 141 -149.001c62 -82.667 103 -144 123 -184c42 -84 80 -172.333 114 -265
c110.667 57.333 197 135.666 259 234.999c19.333 38.667 44 78 74 118zM361 942.002c-11.333 -20.667 -23.999 -41.6689 -37.999 -63.002c-52 -21.333 -86.667 -36.666 -104 -45.999c-44 -22.667 -71 -45.667 -81 -69l-13 5v5c0 32.667 19.333 63.334 58 92.001l-52 21
c-20.667 10.667 -31.667 24 -33 40c6.66699 31.333 22.167 59 46.5 83s51.833 36 82.5 36c7.33301 0 16.666 -5 27.999 -15c7.33301 -12.667 11 -24.334 11 -35.001l-33 -44c-22 20 -37.667 30 -47 30c-6.66699 0 -17 -5 -31 -15
c-4.66699 -7.33301 -8.66699 -15.666 -12 -24.999c8 -18.667 29.667 -28 65 -28c46.667 0 94 12.667 142 38l8 -3zM674.001 951c-16.667 55.333 -50 119.667 -100 193c-46 68 -92.333 124 -139 168l-2 -18v-65c0 -130 15.667 -259.333 47 -388l123 73
c16 6.66699 39.667 19 71 37zM758.001 624.001c0 66 -19.667 156 -59 270l-216 -121l27 -268l-12 -10l-12 8c-5.33301 67.333 -17.333 152.333 -36 255c-98.667 -54 -169.334 -124 -212.001 -210c-38 -77.333 -57 -175.666 -57 -294.999
c0 -50.667 27.667 -97.334 83 -140.001c52 -40 104 -60 156 -60h16l32 7c118.667 26 200.334 99 245.001 219c30 80.667 45 195.667 45 345z" />
    <glyph glyph-name="u0644" unicode="&#x644;" horiz-adv-x="1029" arabic-form="isolated" 
d="M1289 1597c-176 -107.333 -339.334 -194.001 -490.001 -260.001c101.333 -213.333 152 -387 152 -521c0 -555.333 -146.667 -833 -440 -833c-195.333 0 -341.666 122.333 -438.999 367c-40 100.667 -60 183.667 -60 249c0 167.333 54.667 307 164 419
c72.667 74.667 201 159.334 385 254.001l-111 435c-1.33301 5.33301 -2 47 -2 125l5 36c124 -146 233.333 -310.667 328 -494c120 46 286 126.333 498 241l11 -5zM700.999 1340c-74 134 -130.667 219.667 -170 257l-2 -7c0 -6 23.333 -106 70 -300zM720.999 1304
l-112.001 -52c48 -229.333 81 -405.666 99 -528.999c0.666992 -5.33301 -0.666016 -11.666 -3.99902 -18.999l-10 -6l-11 6c-8.66699 65.333 -46 241.333 -112 528c-145.333 -78 -261.666 -166.333 -348.999 -265c-109.333 -124 -164 -255.667 -164 -395
c0 -22.667 6.33301 -55 19 -97c28 -92.667 73.667 -167.334 137 -224.001c69.333 -62.667 150 -94 242 -94c35.333 0 74.666 5.33301 117.999 16c94.667 23.333 176.667 93.666 246 210.999c64 108 96 214.333 96 319c0 164 -65 364.333 -195 601z" />
    <glyph glyph-name="u0645" unicode="&#x645;" horiz-adv-x="857" arabic-form="isolated" 
d="M1114 -145c0 -12 -21.6689 -21.334 -65.002 -28.001l-13 -2c-38 -6 -72 -12 -102 -18c-216 0 -401.333 35 -556 105c-201.333 91.333 -311.333 230.666 -330 417.999c-4 40 -6 74.667 -6 104c0 162 63 329.667 189 503c63.333 87.333 186 223 368 407
c-12 16.667 -18 51.667 -18 105c0 15.333 1.66699 36.333 5 63c68.667 7.33301 118.334 24.166 149.001 50.499s54.334 73.166 71.001 140.499c1.33301 6 4 11 8 15l19 5c3.33301 -12.667 5 -48 5 -106c0 -31.333 -7.16699 -73.166 -21.5 -125.499
s-29.5 -91.166 -45.5 -116.499c-47.333 -73.333 -126 -168.666 -236 -285.999c-120.667 -128 -203 -222 -247 -282c-82 -110.667 -135.667 -221 -161 -331c-12.667 -55.333 -19 -95.666 -19 -120.999c0 -27.333 6.33301 -72.333 19 -135
c8.66699 -42.667 45.667 -92 111 -148c175.333 -150 437 -225 785 -225c-5.33301 0 25 2.66699 91 8z" />
    <glyph glyph-name="u0646" unicode="&#x646;" horiz-adv-x="604" arabic-form="isolated" 
d="M271 78c-74.667 0 -132.669 43.6699 -174.002 131.003c-32.667 69.333 -49 146 -49 230c0 208 63.333 404.667 190 590l197 285c14.667 21.333 30.667 73 48 155l10 6l10 -6c0 -4 -0.666992 -9 -2 -15c-13.333 -60 -31.666 -125.667 -54.999 -197l-245 -363
c-4.66699 -7.33301 -19.334 -42.333 -44.001 -105c-43.333 -110.667 -65 -205.334 -65 -284.001c0 -158 58.667 -245.333 176 -262c4.66699 -0.666992 12 -1 22 -1c58.667 0 117.334 36.333 176.001 109c56.667 69.333 85 134.333 85 195
c0 31.333 -13.667 56.666 -41 75.999c-24 17.333 -52.333 26 -85 26c-52 0 -91.667 -29 -119 -87c56 -0.666992 92.667 -9.66699 110 -27c2.66699 -8 4 -18.667 4 -32c0 -39.333 -11.333 -83 -34 -131c-37.333 7.33301 -80.666 18.666 -129.999 33.999l-6 15
c0 21.333 5 64 15 128c14.667 94 26.667 154 36 180c26 72 69.333 108 130 108c38 0 74 -19.333 108 -58c43.333 -49.333 65 -128.333 65 -237l-6 -33c-22 -122.667 -52 -217 -90 -283c-56 -98 -135 -147 -237 -147z" />
    <glyph glyph-name="u0647" unicode="&#x647;" horiz-adv-x="341" arabic-form="isolated" 
d="M291 561c-8.66699 -43.333 -26.666 -82.6689 -53.999 -118.002c-32.667 -42 -68.334 -63 -107.001 -63c-40 0 -67.167 7.83301 -81.5 23.5s-21.5 43.834 -21.5 84.501c0 72.667 14 150.334 42 233.001c36 106.667 82.333 160 139 160c68.667 0 103 -65 103 -195
c0 -63.333 -6.66699 -105 -20 -125zM250.001 620.997c0 54.667 -23 82 -69 82c-28 0 -51 -15.667 -69 -47c-16 -26.667 -24 -55 -24 -85c10 -10 17.333 -15 22 -15h42c40 0 72.667 21.667 98 65z" />
    <glyph glyph-name="u0648" unicode="&#x648;" horiz-adv-x="614" arabic-form="isolated" 
d="M628 743c0 -130.667 -24.999 -256.997 -74.999 -378.997c-60.667 -147.333 -143 -239.333 -247 -276c-85.333 -30 -209.666 -45 -372.999 -45c-45.333 0 -71.333 6.33301 -78 19l2 5c3.33301 2 15.666 5.33301 36.999 10c224 45.333 400 146.333 528 303
c102.667 125.333 154 251 154 377c0 30 -13.333 65 -40 105c-24.667 -40.667 -62.334 -61 -113.001 -61c-44.667 0 -75 13.667 -91 41c-11.333 19.333 -17 52.666 -17 99.999c0 35.333 8.33301 81.666 25 138.999c8.66699 30 28 45 58 45c78.667 0 139 -47 181 -141
c32.667 -72.667 49 -153.334 49 -242.001z" />
    <glyph glyph-name="u0649" unicode="&#x649;" horiz-adv-x="899" arabic-form="isolated" 
d="M779 305c0 -106.667 -36.3301 -206.997 -108.997 -300.997c-78 -101.333 -168.667 -152 -272 -152c-123.333 0 -219 76 -287 228c-52.667 118 -79 247.667 -79 389c0 143.333 39.333 286.666 118 429.999c22 39.333 50.667 85 86 137l260 294
c71.333 80.667 133.666 193 186.999 337l10 6l5 -11l-4 -12c-36.667 -110 -57.334 -170.667 -62.001 -182c-24 -58.667 -56.333 -113.667 -97 -165c-32.667 -33.333 -93 -99.333 -181 -198c-174.667 -206.667 -262 -386 -262 -538c0 -122.667 22 -234.334 66 -335.001
c56.667 -130 137.667 -195 243 -195c60.667 0 125.667 24.667 195 74c74.667 52.667 112 107.667 112 165c0 30 -38.667 50 -116 60c-94.667 12.667 -156 41 -184 85c-22 34.667 -33 104 -33 208c0 47.333 0.333008 73.666 1 78.999c7.33301 60.667 33 132 77 214
c52 96.667 102.333 145 151 145c50.667 0 95.667 -18.333 135 -55l4 -23c0 -20 -4.66699 -46 -14 -78c-10.667 -36.667 -22.334 -56.667 -35.001 -60l-3 2c-9.33301 12 -18.333 24.333 -27 37c-10 10.667 -26 16 -48 16c-52 0 -98 -32 -138 -96
c-36 -57.333 -54 -113 -54 -167c0 -60.667 47.333 -98 142 -112l122 -18c60.667 -8.66699 91 -78 91 -208z" />
    <glyph glyph-name="u064A" unicode="&#x64a;" horiz-adv-x="899" arabic-form="isolated" 
d="M779 305c0 -106.667 -36.3301 -206.997 -108.997 -300.997c-78 -101.333 -168.667 -152 -272 -152c-123.333 0 -219 76 -287 228c-52.667 118 -79 247.667 -79 389c0 143.333 39.333 286.666 118 429.999c22 39.333 50.667 85 86 137l260 294
c71.333 80.667 133.666 193 186.999 337l10 6l5 -11l-4 -12c-36.667 -110 -57.334 -170.667 -62.001 -182c-24 -58.667 -56.333 -113.667 -97 -165c-32.667 -33.333 -93 -99.333 -181 -198c-174.667 -206.667 -262 -386 -262 -538c0 -122.667 22 -234.334 66 -335.001
c56.667 -130 137.667 -195 243 -195c60.667 0 125.667 24.667 195 74c74.667 52.667 112 107.667 112 165c0 30 -38.667 50 -116 60c-94.667 12.667 -156 41 -184 85c-22 34.667 -33 104 -33 208c0 47.333 0.333008 73.666 1 78.999c7.33301 60.667 33 132 77 214
c52 96.667 102.333 145 151 145c50.667 0 95.667 -18.333 135 -55l4 -23c0 -20 -4.66699 -46 -14 -78c-10.667 -36.667 -22.334 -56.667 -35.001 -60l-3 2c-9.33301 12 -18.333 24.333 -27 37c-10 10.667 -26 16 -48 16c-52 0 -98 -32 -138 -96
c-36 -57.333 -54 -113 -54 -167c0 -60.667 47.333 -98 142 -112l122 -18c60.667 -8.66699 91 -78 91 -208z" />
    <glyph glyph-name="u067E" unicode="&#x67e;" horiz-adv-x="1462" arabic-form="isolated" 
d="M1557 1059c5.33301 -13.333 8.00098 -34.001 8.00098 -62.001c0 -52.667 -3.33301 -82 -10 -88c-48.667 -42.667 -92.334 -98.667 -131.001 -168c-152 -272.667 -261.333 -450 -328 -532c-160 -198 -332.333 -297 -517 -297c-154.667 0 -285.334 59 -392.001 177
c-102.667 114 -154 249.333 -154 406c0 84 11.667 154.167 35 210.5s65 114.166 125 173.499c76 75.333 236.333 113 481 113h450l3 -10c-10 -6.66699 -32 -12 -66 -16c-107.333 -12.667 -230.666 -22.667 -369.999 -30c-82 -4 -138 -6.33301 -168 -7
c-8.66699 0 -33 -5 -73 -15c-143.333 -35.333 -248.333 -98.666 -315 -189.999c-38 -52 -57 -105.667 -57 -161l4 -32c16.667 -128.667 68.667 -235.667 156 -321c91.333 -88.667 200.666 -133 327.999 -133c212.667 0 431.334 174 656.001 522l263 407
c6 8.66699 30 26.334 72 53.001zM924.001 -561.001c-15.333 0 -31.668 6.83105 -49.001 20.498s-26 27.834 -26 42.501c0 20.667 6 46.667 18 78c14 36.667 29.667 55 47 55c4 -1.33301 11.333 -9.66602 22 -24.999c8 -12 20.667 -18 38 -18c48.667 0 90.334 35 125.001 105
c16 32.667 35 85.334 57 158.001c4 -28.667 6 -45.334 6 -50.001c0 -61.333 -24.333 -135.333 -73 -222c-54 -96 -109 -144 -165 -144z" />
    <glyph glyph-name="u0686" unicode="&#x686;" horiz-adv-x="857" arabic-form="isolated" 
d="M1187 -138c-33.333 -23.333 -113.335 -35.002 -240.002 -35.002c-150.667 0 -309.667 26.667 -477 80c-285.333 90.667 -428 265.334 -428 524.001c0 74.667 28 170.667 84 288c52.667 110.667 107.667 195 165 253l162 159c-3.33301 12.667 -15.666 33 -36.999 61
c-14 18.667 -21 50 -21 94c0 14.667 4.33301 41.667 13 81l17 77c6 26 69.333 69 190 129c94 46.667 152.667 70 176 70c7.33301 0 17.833 -5.83301 31.5 -17.5s20.5 -21.167 20.5 -28.5c-2 -58.667 -7.33301 -134.667 -16 -228c-23.333 -80 -87 -167 -191 -261l-173 -156
c-236.667 -213.333 -355 -426.333 -355 -639c0 -76.667 41.667 -152.667 125 -228c68 -62 146.667 -109 236 -141c64.667 -23.333 154.667 -43.666 270 -60.999c124 -18.667 226.333 -28 307 -28c50.667 0 97.334 6 140.001 18l6 -3zM584.998 377.998
c-48 0 -72.001 30 -72.001 90c0 15.333 7.33301 36 22 62c16 28.667 30.667 43 44 43c9.33301 -8.66699 14.666 -16 15.999 -22c8.66699 -13.333 23.334 -20 44.001 -20c15.333 0 35.333 8.33301 60 25c34.667 23.333 61.667 59 81 107
c2.66699 6.66699 16.334 50 41.001 130l5 -52c0 -63.333 -24.333 -137.333 -73 -222c-54 -94 -110 -141 -168 -141zM783.997 1479c-46.667 -8 -105.334 -26.335 -176.001 -55.002c-82 -34 -133.667 -66.333 -155 -97c18.667 -28 35.334 -56.333 50.001 -85
c1.33301 -17.333 2 -31.666 2 -42.999s-0.666992 -19.666 -2 -24.999c78 60 132 105 162 135c54 53.333 93.667 110 119 170z" />
    <glyph glyph-name="u0698" unicode="&#x698;" horiz-adv-x="693" arabic-form="isolated" 
d="M536 1550c0 -22 -5.99707 -48.332 -17.9971 -78.999c-14 -36 -30 -54 -48 -54l-14 12l-5 13l-3 3c-18.667 8 -31.334 12 -38.001 12c-26.667 0 -55.667 -15.333 -87 -46s-50.333 -59.667 -57 -87c-8.66699 -34 -21.334 -76.333 -38.001 -127l-5 52
c0 61.333 23.333 134.666 70 219.999c52 94.667 104.333 142 157 142c19.333 0 37.666 -5.33301 54.999 -16c20.667 -12 31 -27 31 -45zM683.003 829.001c-19.333 22 -30.999 32.999 -34.999 32.999c-12 0 -24.333 -11 -37 -33c-6.66699 -24.667 -27 -150 -61 -376
c-21.333 -140.667 -58 -241.334 -110 -302.001c-71.333 -82.667 -188 -124 -350 -124c-164 0 -251.667 8.33301 -263 25l6 6c146 0 271 32 375 96c112 68.667 190.667 169.334 236 302.001c19.333 56.667 39.5 144.5 60.5 263.5s41.5 207.167 61.5 264.5
c8.66699 25.333 22.667 38 42 38c27.333 0 50.666 -22 69.999 -66c16 -36.667 24 -70.667 24 -102c0 -17.333 -6.33301 -25.666 -19 -24.999z" />
    <glyph glyph-name="u06AF" unicode="&#x6af;" horiz-adv-x="984" arabic-form="isolated" 
d="M1074 2254c0 -7.33301 -14.667 -54.998 -44 -142.998c-31.333 -94.667 -47.333 -144 -48 -148l-36 -283c-0.666992 -6.66699 -5.33398 -14.334 -14.001 -23.001c-2 13.333 -3 37 -3 71c0 111.333 7.66699 199 23 263c-80.667 -86 -146 -149.333 -196 -190
c-59.333 -48 -144.666 -99.333 -255.999 -154c-128 -62.667 -225.333 -94 -292 -94l-8 7l3 5c170 68 287.667 123 353 165c80 51.333 175.333 137.666 286 258.999c115.333 126.667 185 218.334 209 275l10 7c8.66699 0.666992 13 -5 13 -17zM1076 1320
c-10 -48 -30 -99 -60 -153c-31.333 -57.333 -64.333 -100.666 -99 -129.999c-30 -25.333 -84.333 -62 -163 -110c38 -139.333 57 -279.666 57 -420.999c0 -358.667 -96 -560.667 -288 -606c-48 -11.333 -78.667 -17 -92 -17c-100 0 -176.667 48.667 -230 146
c-42.667 78 -64 171.667 -64 281c0 115.333 26.333 214 79 296c46 72 121 142.667 225 212l-70 502c-2 60 -5.66699 146.667 -11 260c24.667 -6.66699 71.667 -56.334 141 -149.001c62 -82.667 103 -144 123 -184c42 -84 80 -172.333 114 -265
c110.667 57.333 197 135.666 259 234.999c19.333 38.667 44 78 74 118zM361 942.002c-11.333 -20.667 -23.999 -41.6689 -37.999 -63.002c-52 -21.333 -86.667 -36.666 -104 -45.999c-44 -22.667 -71 -45.667 -81 -69l-13 5v5c0 32.667 19.333 63.334 58 92.001l-52 21
c-20.667 10.667 -31.667 24 -33 40c6.66699 31.333 22.167 59 46.5 83s51.833 36 82.5 36c7.33301 0 16.666 -5 27.999 -15c7.33301 -12.667 11 -24.334 11 -35.001l-33 -44c-22 20 -37.667 30 -47 30c-6.66699 0 -17 -5 -31 -15
c-4.66699 -7.33301 -8.66699 -15.666 -12 -24.999c8 -18.667 29.667 -28 65 -28c46.667 0 94 12.667 142 38l8 -3zM674.001 951c-16.667 55.333 -50 119.667 -100 193c-46 68 -92.333 124 -139 168l-2 -18v-65c0 -130 15.667 -259.333 47 -388l123 73
c16 6.66699 39.667 19 71 37zM758.001 624.001c0 66 -19.667 156 -59 270l-216 -121l27 -268l-12 -10l-12 8c-5.33301 67.333 -17.333 152.333 -36 255c-98.667 -54 -169.334 -124 -212.001 -210c-38 -77.333 -57 -175.666 -57 -294.999
c0 -50.667 27.667 -97.334 83 -140.001c52 -40 104 -60 156 -60h16l32 7c118.667 26 200.334 99 245.001 219c30 80.667 45 195.667 45 345zM823.001 2271c0 -48.667 -41.333 -129 -124 -241c-60.667 -82 -120.834 -146.167 -180.501 -192.5s-137.167 -89.833 -232.5 -130.5
c-76.667 -32.667 -131 -49 -163 -49l-8 7l5 10c106.667 47.333 191.667 90 255 128c84 50 166.333 120.5 247 211.5s139.334 180.5 176.001 268.5l11 5c9.33301 0.666992 14 -5 14 -17z" />
    <glyph glyph-name="uFB57" unicode="&#x67e;" horiz-adv-x="1675" arabic-form="final" 
d="M1697 440c-40.667 -36 -83.001 -54.0029 -127.001 -54.0029c-52 0 -96 25.333 -132 76c-32.667 46.667 -49 97 -49 151l-3 4l-11 -1c-7.33301 -5.33301 -79.333 -105.333 -216 -300c-173.333 -247.333 -363 -371 -569 -371c-142.667 0 -272 64.667 -388 194
c-112.667 125.333 -169 260.333 -169 405v30c0.666992 6 2.33398 19.333 5.00098 40c18 136.667 77.333 241 178 313c92 66 209.333 99 352 99c11.333 0 43.666 -1 96.999 -3c34.667 -1.33301 67.334 -1.66602 98.001 -0.999023c34.667 0.666992 66.667 4 96 10
c124 24.667 227.333 57 310 97l3 -12c-36.667 -29.333 -105 -62 -205 -98c-78 -28 -156.667 -42 -236 -42c-288.667 0 -486.667 -63.667 -594 -191c-43.333 -51.333 -65 -122 -65 -212c0 -115.333 49.5 -222 148.5 -320s206.5 -147 322.5 -147c82.667 0 147.667 10 195 30
c134 56.667 257.667 157 371 301l266 338c13.333 16.667 24 26.334 32 29.001l7 -4l8 -15c-2 -39.333 -3 -77.666 -3 -114.999c0 -34 15.667 -62.333 47 -85c28.667 -20.667 60.667 -31 96 -31c54.667 0 99.667 24.667 135 74v-189zM856.999 -535.003
c-40.667 0 -68.666 20.668 -83.999 62.001c0 21.333 6 47.333 18 78c14 36 30 54 48 54c4 -4 11.667 -13.667 23 -29c11.333 -7.33301 23 -11 35 -11c49.333 0 91.666 34.333 126.999 103c14 27.333 33 80 57 158c3.33301 -20.667 5 -37.334 5 -50.001
c0 -60.667 -23.333 -134 -70 -220c-52.667 -96.667 -105.667 -145 -159 -145z" />
    <glyph glyph-name="uFB58" unicode="&#x67e;" horiz-adv-x="253" arabic-form="initial" 
d="M82 681c0 -106 -31.665 -189.331 -94.998 -249.998v188c27.333 25.333 45.666 57.666 54.999 96.999c-18 85.333 -49.333 144.666 -94 177.999c-12 -16 -20.667 -34.333 -26 -55c-2.66699 -0.666992 -5.33398 -1 -8.00098 -1c-6 0 -9 11.333 -9 34
c0 118 16 190.333 48 217c58 -70 95 -134 111 -192c12 -43.333 18 -115.333 18 -216zM53.002 0.00195312c-14.667 0 -30.834 6.83301 -48.501 20.5s-26.5 27.5 -26.5 41.5c0 22.667 6 49 18 79c14.667 36 31 54 49 54c4 -2.66699 11.333 -12.667 22 -30
c13.333 -8 26 -12 38 -12c26.667 0 55.667 16.333 87 49c28.667 29.333 47.334 58 56.001 86l38 127l5 -52c0 -62 -24.333 -135.667 -73 -221c-54 -94.667 -109 -142 -165 -142z" />
    <glyph glyph-name="uFB59" unicode="&#x67e;" horiz-adv-x="306" arabic-form="medial" 
d="M321 440c-44.667 -40 -97.3311 -59.999 -157.998 -59.999c-56.667 0 -105.334 24.333 -146.001 73l-30 -22v185c47.333 56.667 72.666 95.667 75.999 117l9 10c10 -20.667 15 -53.667 15 -99c0 -44.667 -10.667 -83.334 -32 -116.001c14 -8 36.333 -12 67 -12
c26.667 0 61 13 103 39c52 32 84 56.667 96 74v-189zM100.003 -393.999c-55.333 0 -83 21 -83 63c0 23.333 5.66699 49.333 17 78c14 35.333 30 53 48 53l23 -30c10.667 -6.66699 22.334 -10 35.001 -10c26.667 0 56 16 88 48c30.667 30 50 58.667 58 86l37 126l7 -52
c0 -58 -24 -130.667 -72 -218c-52.667 -96 -105.334 -144 -158.001 -144z" />
    <glyph glyph-name="uFB7B" unicode="&#x686;" horiz-adv-x="743" arabic-form="final" 
d="M969 -889c3.33301 -2.66699 5.33203 -5.33203 5.99902 -7.99902c-11.333 -18.667 -63.333 -34.667 -156 -48c-74.667 -10.667 -138 -16 -190 -16c-406 0 -609 116.667 -609 350c0 131.333 54.667 253 164 365l170 167c60 59.333 96.333 110 109 152l-5 2
c-46.667 -28.667 -114 -74.334 -202 -137.001c-15.333 -13.333 -34.666 -26.666 -57.999 -39.999c-8 0.666992 -12 8 -12 22c0 49.333 20.667 154.333 62 315c24.667 97.333 73 162.666 145 195.999l168 78l20 9c70.667 33.333 128 71 172 113v-190
c-16 -16 -48.333 -34.667 -97 -56c-36.667 -15.333 -101.667 -44.333 -195 -87c-74 -35.333 -126 -81.333 -156 -138c22 6 66.333 29 133 69c64.667 38.667 100 58.334 106 59.001l7 -5c10 -42.667 15 -81.667 15 -117c0 -108.667 -19.333 -197.334 -58 -266.001
c-29.333 -52 -90.333 -122 -183 -210c-83.333 -79.333 -134.333 -130 -153 -152c-58 -68.667 -87 -131.667 -87 -189c0 -20 1.66699 -36 5 -48c17.333 -62.667 84 -113.667 200 -153c92 -31.333 180.667 -47 266 -47h215c78.667 0 144.667 3.33301 198 10zM687.999 -364.998
c0 -50 -25.334 -117.666 -76.001 -202.999c-54.667 -92.667 -105 -139 -151 -139c-19.333 0 -37.666 5.66699 -54.999 17c-20 12.667 -30 28 -30 46c0 20.667 6 46.667 18 78c14 36.667 29.333 55 46 55c8 -3.33301 16.333 -13.333 25 -30c17.333 -8 30 -12 38 -12
c24.667 0 53 16.333 85 49c29.333 30 48 58 56 84l39 129c3.33301 -18.667 5 -43.334 5 -74.001z" />
    <glyph glyph-name="uFB7C" unicode="&#x686;" horiz-adv-x="634" arabic-form="initial" 
d="M586 1037c-120.667 -54.667 -207.332 -120.001 -259.999 -196.001l-98 -146c-42 -60 -78 -104.667 -108 -134l42 -138c16 -52 34.667 -96.333 56 -133l-2 -19l-8 4c-13.333 22.667 -35 66 -65 130l-50 123c-11.333 -13.333 -46.666 -45.666 -105.999 -96.999v188
c14.667 12 34 30 58 54c-24.667 65.333 -37 157.333 -37 276c0 135.333 81.667 203 245 203c13.333 0 33.666 -1.83301 60.999 -5.5s47.666 -5.5 60.999 -5.5c82.667 0 150.667 19.667 204 59c8 -26 12 -62.333 12 -109c0 -17.333 -1.66699 -35.333 -5 -54zM342.002 -85.001
c-16.667 0 -32.668 6.33301 -48.001 19s-23 27 -23 43c0 22 6 48.333 18 79c14 36 29.667 54 47 54c6.66699 -8 18.334 -20 35.001 -36l25 -6c28 0 56.667 15.667 86 47c24 26 42.333 54.667 55 86c5.33301 12.667 18.333 55.667 39 129l7 -52
c0 -62.667 -24.333 -136.667 -73 -222c-53.333 -94 -109.333 -141 -168 -141zM305.001 988.999c-51.333 1.33301 -98.667 -2 -142 -10c-70.667 -13.333 -106 -66 -106 -158v-32c0 -14 6.66699 -42.667 20 -86c24.667 26 62 74.333 112 145c45.333 64 84 111 116 141z" />
    <glyph glyph-name="uFB7D" unicode="&#x686;" horiz-adv-x="846" arabic-form="medial" 
d="M859 438c-76 -52 -157.67 -77.999 -245.003 -77.999c-93.333 0 -169.666 43 -228.999 129c-53.333 77.333 -80 164.666 -80 261.999c-57.333 -52.667 -131.666 -130.334 -222.999 -233.001c-2 -19.333 2.83301 -63.166 14.5 -131.499s21.834 -112.833 30.501 -133.5
l-4 -18l-11 3c-25.333 81.333 -45 164 -59 248c-16 -12 -38 -30.333 -66 -55v188l36 35c-2 54 -3 95.333 -3 124c0 95.333 9.33301 167 28 215c29.333 76 84 114 164 114c32.667 0 80.667 -8.66699 144 -26s111.333 -26 144 -26c58 0 104.333 9.66699 139 29l4 -22
c0 -67.333 -8 -113.333 -24 -138c-97.333 -21.333 -188.333 -67.333 -273 -138c7.33301 -75.333 33.333 -135.333 78 -180s104.334 -67 179.001 -67c105.333 0 190.666 29.667 255.999 89v-190zM364.997 -160.999c-18 0 -35.667 5.66699 -53 17
c-19.333 12.667 -29 27.334 -29 44.001c0 21.333 6.33301 47.666 19 78.999c14.667 36 30.667 54 48 54c3.33301 -6.66699 10.333 -16.667 21 -30c16 -6.66699 27.667 -10 35 -10c26.667 0 56 16 88 48c29.333 29.333 48.333 58 57 86l38 126l7 -52
c0 -58 -24 -130.667 -72 -218c-52.667 -96 -105.667 -144 -159 -144zM330.997 924.001c-44 12 -87.334 18 -130.001 18c-99.333 0 -149 -55.667 -149 -167c0 -9.33301 0.333008 -19 1 -29l4 -58l128 128c44.667 44.667 93.334 80.667 146.001 108z" />
    <glyph glyph-name="uFB8B" unicode="&#x698;" horiz-adv-x="726" arabic-form="final" 
d="M463 1011c0 -20 -6.33496 -46 -19.002 -78c-15.333 -37.333 -31 -56 -47 -56c-4.66699 2.66699 -12.667 12.334 -24 29.001c-11.333 8.66699 -23.666 13 -36.999 13c-26.667 0 -55.667 -16.333 -87 -49c-29.333 -30 -47.666 -58.833 -54.999 -86.5
s-20.333 -69.5 -39 -125.5c-3.33301 18 -5 34 -5 48c0 59.333 23.333 132.666 70 219.999c52 97.333 105 146 159 146c18.667 0 36.667 -5.33301 54 -16c20 -12 30 -27 30 -45zM740.998 438c-28.667 -18 -78.001 -51.334 -148.001 -100.001
c-67.333 -49.333 -106.333 -95.333 -117 -138c-18 -72 -29.667 -127.667 -35 -167c-2 -20 -6.66699 -57.667 -14 -113c-8.66699 -63.333 -28.667 -125 -60 -185c-35.333 -68.667 -77.666 -115.334 -126.999 -140.001c-40 -20 -98.333 -30 -175 -30h-107
c-110.667 0 -187 12.333 -229 37l-4 5l5 8c42.667 -6.66699 81 -10 115 -10c102.667 0 195.667 25.333 279 76c87.333 52.667 149.333 125.334 186 218.001c16.667 42.667 55.667 175.334 117 398.001c16 58.667 43.667 108 83 148c20 20.667 57.667 50 113 88
c62.667 43.333 102 75.333 118 96v-191z" />
    <glyph glyph-name="uFEDA" unicode="&#x6a9;" horiz-adv-x="1808" arabic-form="final" 
d="M1825 1715l-0.000976562 -13.001l-8 -14c-93.333 128 -140.666 248.667 -141.999 362c-76.667 -238 -147.334 -416.667 -212.001 -536c-102.667 -189.333 -230 -328.666 -382 -417.999l51 -85v-14h-8l-62 89c-100 -50 -190.333 -75 -271 -75l-5 1l-2 2l4 12
c78.667 34 153.334 72.333 224.001 115c-132.667 139.333 -256 209 -370 209c-170.667 0 -306 -61 -406 -183c-92.667 -113.333 -139 -257 -139 -431c0 -137.333 42 -246 126 -326c82 -79.333 192 -119 330 -119c136.667 0 275.334 63 416.001 189
c106 94.667 204.333 216.667 295 366c85.333 140 163 210 233 210c25.333 0 42.333 -38 51 -114l14 -144c6.66699 -50.667 18.667 -98.334 36 -143.001c27.333 -68 58 -102 92 -102c46 0 91 25.333 135 76v-189c-50 -40 -92.333 -60 -127 -60c-54.667 0 -98 36 -130 108
c-24 53.333 -37.333 112.666 -40 177.999c-4.66699 100.667 -10.667 165 -18 193c-4.66699 16.667 -15 25 -31 25c-14.667 0 -29.667 -5.66699 -45 -17c-52.667 -39.333 -97 -85.333 -133 -138l-109 -160c-99.333 -146 -186 -250.667 -260 -314
c-112.667 -96.667 -236.334 -145 -371.001 -145c-160.667 0 -290.334 65.667 -389.001 197c-90 120 -135 263 -135 429c0 161.333 55.333 308 166 440c116.667 138.667 254.334 208 413.001 208h37c120.667 0 246.667 -76.667 378 -230c175.333 100.667 325 272 449 514
c24.667 48.667 52 114.334 82 197.001c33.333 92.667 58.333 159.334 75 200.001c8.66699 22.667 25 63 49 121c18 42.667 41.667 78.667 71 108l11 2l5 -2c-35.333 -40 -53 -113 -53 -219c0 -104 35 -224 105 -360zM793.999 903.999c-14 -19.333 -27.334 -41 -40.001 -65
c-20 -8 -55 -23.333 -105 -46s-80.333 -47.667 -91 -75l-12 5v5c-2.66699 30 17.333 62.667 60 98l-61 24c-19.333 11.333 -29 27.666 -29 48.999c0 24.667 16.333 50.334 49 77.001s62 40 88 40c14.667 0 30.667 -18 48 -54c-11.333 -14 -25.666 -29 -42.999 -45
c-16.667 20 -33 30 -49 30c-25.333 0 -40.666 -13.667 -45.999 -41l5 -12c13.333 -13.333 33.666 -20 60.999 -20c54.667 0 104.667 14.333 150 43l10 -3z" />
    <glyph glyph-name="uFEDB" unicode="&#x6a9;" horiz-adv-x="256" arabic-form="initial" 
d="M360 1289l-11.998 -17h-10v37c0 139.333 10 255.333 30 348c-96.667 -113.333 -159.334 -183.666 -188.001 -210.999c-70.667 -67.333 -149.667 -117 -237 -149c31.333 -17.333 68.666 -81 111.999 -191c31.333 -79.333 51 -141 59 -185c7.33301 -40 11 -103.333 11 -190
c0 -117.333 -47.333 -218.333 -142 -303v188c64 72 96 133.333 96 184c0 41.333 -14.167 90.666 -42.5 147.999s-58.833 100 -91.5 128c-6.66699 -17.333 -10 -58.666 -10 -123.999c0 -20 -6.66699 -32.667 -20 -38c-16 14.667 -24 56 -24 124c0 30 3.33301 73.333 10 130
c8 65.333 16 106 24 122c-53.333 -18 -89 -29.667 -107 -35c-40 -11.333 -77 -18.333 -111 -21l-8 8l3 10c100 37.333 194.333 78.333 283 123c80 40 171 121 273 243c92.667 110 158.667 213.333 198 310l12 5c10 0.666992 15 -3 15 -11
c0 -11.333 -11.667 -57.333 -35 -138l-43 -151c-8 -28.667 -23 -143.334 -45 -344.001z" />
    <glyph glyph-name="uFEDC" unicode="&#x6a9;" horiz-adv-x="536" arabic-form="medial" 
d="M391 2150c-55.333 -209.333 -83 -400.999 -83 -574.999c0 -18.667 2.66699 -39 8 -61l-15 -12c-10.667 19.333 -24 59.666 -40 120.999c-57.333 -122 -156 -229.667 -296 -323c-24 -16 -45.667 -29.333 -65 -40c-6 -2 -15 -4.66699 -27 -8l-13 5l2 7
c156 98.667 272 225 348 379c46 94 99.333 262.333 160 505l10 7zM554 440.001c-43.333 -43.333 -118 -64.999 -224 -64.999c-56 0 -103.667 40.667 -143 122c-14 29.333 -35.333 91.666 -64 186.999c-3.33301 -19.333 -10 -48 -20 -86c0 -20.667 -14.667 -51.667 -44 -93
c-14 -20 -39.333 -45.667 -76 -77v188c72.667 77.333 109 143.333 109 198c0 32 -14.333 92 -43 180l-57 172v51c0 60.667 5 93 15 97l10 -4c49.333 -138 92 -277.667 128 -419c15.333 -59.333 33 -123.333 53 -192c28.667 -98.667 82.667 -148 162 -148
c85.333 0 150 26 194 78v-189z" />
    <glyph glyph-name="uFB93" unicode="&#x6af;" horiz-adv-x="1808" arabic-form="final" 
d="M1825 1715l-0.000976562 -13.001l-8 -14c-93.333 128 -140.666 248.667 -141.999 362c-76.667 -238 -147.334 -416.667 -212.001 -536c-102.667 -189.333 -230 -328.666 -382 -417.999l51 -85v-14h-8l-62 89c-100 -50 -190.333 -75 -271 -75l-5 1l-2 2l4 12
c78.667 34 153.334 72.333 224.001 115c-132.667 139.333 -256 209 -370 209c-170.667 0 -306 -61 -406 -183c-92.667 -113.333 -139 -257 -139 -431c0 -137.333 42 -246 126 -326c82 -79.333 192 -119 330 -119c136.667 0 275.334 63 416.001 189
c106 94.667 204.333 216.667 295 366c85.333 140 163 210 233 210c25.333 0 42.333 -38 51 -114l14 -144c6.66699 -50.667 18.667 -98.334 36 -143.001c27.333 -68 58 -102 92 -102c46 0 91 25.333 135 76v-189c-50 -40 -92.333 -60 -127 -60c-54.667 0 -98 36 -130 108
c-24 53.333 -37.333 112.666 -40 177.999c-4.66699 100.667 -10.667 165 -18 193c-4.66699 16.667 -15 25 -31 25c-14.667 0 -29.667 -5.66699 -45 -17c-52.667 -39.333 -97 -85.333 -133 -138l-109 -160c-99.333 -146 -186 -250.667 -260 -314
c-112.667 -96.667 -236.334 -145 -371.001 -145c-160.667 0 -290.334 65.667 -389.001 197c-90 120 -135 263 -135 429c0 161.333 55.333 308 166 440c116.667 138.667 254.334 208 413.001 208h37c120.667 0 246.667 -76.667 378 -230c175.333 100.667 325 272 449 514
c24.667 48.667 52 114.334 82 197.001c33.333 92.667 58.333 159.334 75 200.001c8.66699 22.667 25 63 49 121c18 42.667 41.667 78.667 71 108l11 2l5 -2c-35.333 -40 -53 -113 -53 -219c0 -104 35 -224 105 -360zM793.999 903.999c-14 -19.333 -27.334 -41 -40.001 -65
c-20 -8 -55 -23.333 -105 -46s-80.333 -47.667 -91 -75l-12 5v5c-2.66699 30 17.333 62.667 60 98l-61 24c-19.333 11.333 -29 27.666 -29 48.999c0 24.667 16.333 50.334 49 77.001s62 40 88 40c14.667 0 30.667 -18 48 -54c-11.333 -14 -25.666 -29 -42.999 -45
c-16.667 20 -33 30 -49 30c-25.333 0 -40.666 -13.667 -45.999 -41l5 -12c13.333 -13.333 33.666 -20 60.999 -20c54.667 0 104.667 14.333 150 43l10 -3zM1447 2165c0 -90 -51.334 -221.003 -154.001 -393.003c-49.333 -82.667 -141.666 -168 -276.999 -256
c-70 -45.333 -120.667 -70.666 -152 -75.999l-9 5l3 11c98 66.667 174.333 123.334 229 170.001c74 62 143 145.333 207 250s106 203.334 126 296.001l10 7c2 0.666992 4 1 6 1c7.33301 0 11 -5 11 -15z" />
    <glyph glyph-name="uFB94" unicode="&#x6af;" horiz-adv-x="256" arabic-form="initial" 
d="M360 1289l-11.998 -17h-10v37c0 139.333 10 255.333 30 348c-96.667 -113.333 -159.334 -183.666 -188.001 -210.999c-70.667 -67.333 -149.667 -117 -237 -149c31.333 -17.333 68.666 -81 111.999 -191c31.333 -79.333 51 -141 59 -185c7.33301 -40 11 -103.333 11 -190
c0 -117.333 -47.333 -218.333 -142 -303v188c64 72 96 133.333 96 184c0 41.333 -14.167 90.666 -42.5 147.999s-58.833 100 -91.5 128c-6.66699 -17.333 -10 -58.666 -10 -123.999c0 -20 -6.66699 -32.667 -20 -38c-16 14.667 -24 56 -24 124c0 30 3.33301 73.333 10 130
c8 65.333 16 106 24 122c-53.333 -18 -89 -29.667 -107 -35c-40 -11.333 -77 -18.333 -111 -21l-8 8l3 10c100 37.333 194.333 78.333 283 123c80 40 171 121 273 243c92.667 110 158.667 213.333 198 310l12 5c10 0.666992 15 -3 15 -11
c0 -11.333 -11.667 -57.333 -35 -138l-43 -151c-8 -28.667 -23 -143.334 -45 -344.001zM342.002 2104c0 -44 -35.333 -129 -106 -255c-85.333 -152.667 -211 -271.334 -377 -356.001c-76 -38.667 -130 -59.667 -162 -63l-4 5v13c56.667 28.667 138 76.334 244 143.001
c178 136.667 304.333 310.667 379 522l17 6c6 -1.33301 9 -6.33301 9 -15z" />
    <glyph glyph-name="uFB95" unicode="&#x6af;" horiz-adv-x="536" arabic-form="medial" 
d="M391 2150c-55.333 -209.333 -83 -400.999 -83 -574.999c0 -18.667 2.66699 -39 8 -61l-15 -12c-10.667 19.333 -24 59.666 -40 120.999c-57.333 -122 -156 -229.667 -296 -323c-24 -16 -45.667 -29.333 -65 -40c-6 -2 -15 -4.66699 -27 -8l-13 5l2 7
c156 98.667 272 225 348 379c46 94 99.333 262.333 160 505l10 7zM554 440.001c-43.333 -43.333 -118 -64.999 -224 -64.999c-56 0 -103.667 40.667 -143 122c-14 29.333 -35.333 91.666 -64 186.999c-3.33301 -19.333 -10 -48 -20 -86c0 -20.667 -14.667 -51.667 -44 -93
c-14 -20 -39.333 -45.667 -76 -77v188c72.667 77.333 109 143.333 109 198c0 32 -14.333 92 -43 180l-57 172v51c0 60.667 5 93 15 97l10 -4c49.333 -138 92 -277.667 128 -419c15.333 -59.333 33 -123.333 53 -192c28.667 -98.667 82.667 -148 162 -148
c85.333 0 150 26 194 78v-189zM280 2155c0 -66.667 -20.001 -156.333 -60.001 -269c-58.667 -166 -162 -304.667 -310 -416c-68 -51.333 -117.333 -81.333 -148 -90l-5 4l-2 13l110 88c100.667 80.667 185.334 181.667 254.001 303c67.333 118 112 242 134 372l15 8
c8 0 12 -4.33301 12 -13z" />
    <glyph glyph-name="uFE94" unicode="&#x6c0;" horiz-adv-x="624" arabic-form="final" 
d="M301 1176c0 -8.66699 0.833008 -21.499 2.5 -38.499s2.5 -29.833 2.5 -38.5c0 -39.333 -17.333 -73.333 -52 -102c-8 -6.66699 -41.667 -27.667 -101 -63c-13.333 -10.667 -35 -25 -65 -43l-3 18c0 23.333 7.66699 71.666 23 144.999c36.667 19.333 101 60 193 122z
M644 441.001c-47.333 -47.333 -115.001 -70.999 -203.001 -70.999c-4 0 -28.333 5 -73 15l-47 -7c-48 -7.33301 -108.333 -89 -181 -245l-12 -8c-18.667 43.333 -28 93.666 -28 150.999c0 34 26.333 89.333 79 166c58 84 109.333 126 154 126
c16.667 0 40.834 -6.16699 72.501 -18.5s55.834 -18.5 72.501 -18.5c45.333 0 100.666 33.333 165.999 100v-190z" />
    <glyph glyph-name="uFEF2" unicode="&#x6cc;" horiz-adv-x="736" arabic-form="final" 
d="M753 438c-55.333 -36 -104.001 -69.667 -146.001 -101c-81.333 -61.333 -122 -105.333 -122 -132c0 -18.667 17 -41.334 51 -68.001c31.333 -25.333 57.333 -40 78 -44s44.334 -9 71.001 -15c54 -18 81 -84.667 81 -200c0 -126 -33.333 -249 -100 -369
c-78.667 -141.333 -175.667 -212 -291 -212c-116.667 0 -205.334 61 -266.001 183c-48 96 -72 209.333 -72 340c0 108 28.667 226 86 354c72 161.333 115 275.333 129 342c12 57.333 20 145 24 263c0.666992 14 5.33398 22.333 14.001 25l10 -5c4 -40 6 -77.333 6 -112
c0 -36 -11.667 -123.333 -35 -262c-6.66699 -48 -23 -104.667 -49 -170l-71 -162c-47.333 -112 -71 -210.667 -71 -296c0 -100.667 27.333 -180.667 82 -240c56.667 -62 134.667 -93 234 -93c69.333 0 143 50.333 221 151c74.667 96 112 179.667 112 251c0 22 -19 39 -57 51
l-81 21c-17.333 4.66699 -43.333 21.334 -78 50.001c-50 41.333 -75 134 -75 278c0 60 17.333 112.333 52 157c23.333 30.667 63.333 65 120 103c45.333 30.667 93 65 143 103v-191z" />
    <glyph glyph-name="uFEF3" unicode="&#x6cc;" horiz-adv-x="181" arabic-form="initial" 
d="M82 681c0 -106 -31.665 -189.331 -94.998 -249.998v188c27.333 25.333 45.666 57.666 54.999 96.999c-18 85.333 -49.333 144.666 -94 177.999c-12 -16 -20.667 -34.333 -26 -55c-2.66699 -0.666992 -5.33398 -1 -8.00098 -1c-6 0 -9 11.333 -9 34
c0 118 16 190.333 48 217c58 -70 95 -134 111 -192c12 -43.333 18 -115.333 18 -216zM201.002 201.002c2.66699 -67.333 4 -93.667 4 -79c0 -50 -40 -98 -120 -144c-11.333 -2 -27.333 -11 -48 -27c-26 -20 -42.333 -31.333 -49 -34c-3.33301 10.667 -5 17.667 -5 21
c0 20 8 67.333 24 142c54 26 118.667 66.333 194 121z" />
    <glyph glyph-name="uFEF4" unicode="&#x6cc;" horiz-adv-x="306" arabic-form="medial" 
d="M321 440c-44.667 -40 -97.3311 -59.999 -157.998 -59.999c-56.667 0 -105.334 24.333 -146.001 73l-30 -22v185c47.333 56.667 72.666 95.667 75.999 117l9 10c10 -20.667 15 -53.667 15 -99c0 -44.667 -10.667 -83.334 -32 -116.001c14 -8 36.333 -12 67 -12
c26.667 0 61 13 103 39c52 32 84 56.667 96 74v-189zM157.003 256.001c0 -8.66699 0.500977 -21.3311 1.50098 -37.998s1.5 -29.334 1.5 -38.001c0 -36.667 -14.333 -68 -43 -94c-0.666992 -0.666992 -30.334 -20.334 -89.001 -59.001l-85 -55l-3 18
c0 22 7.66699 70.333 23 145c60 28.667 124.667 69 194 121z" />
    <glyph glyph-name="Hcircumflex" unicode="&#x622;" horiz-adv-x="779" arabic-form="final" 
d="M476 1913l4.00195 -33.001c0 -65.333 -29 -119.666 -87 -162.999c-44.667 -33.333 -80.334 -50 -107.001 -50c-8 0 -19.667 1 -35 3s-27 3 -35 3c-37.333 0 -74.333 -26.667 -111 -80l-13 5l-4 22c18 62.667 48.667 106.667 92 132l33 5
c7.33301 0 17.833 -0.833008 31.5 -2.5s24.167 -2.5 31.5 -2.5c10.667 0 18.667 1 24 3c25.333 0 54.666 17.667 87.999 53c31.333 33.333 49.666 63.333 54.999 90c12.667 11.333 21.334 17 26.001 17zM796.002 437.999c-42.667 -36.667 -95.332 -55.001 -157.999 -55.001
c-76 0 -138.667 40.667 -188 122c-27.333 44.667 -56.333 119.334 -87 224.001l-192 648c-2.66699 9.33301 -2.33398 37.333 0.999023 84s7 74.667 11 84h7c4.66699 -4 16.667 -46.667 36 -128c1.33301 -4 39.666 -133.333 114.999 -388
c44.667 -150 77.334 -247 98.001 -291c58.667 -124.667 128.667 -187 210 -187c54 0 103 25.667 147 77v-190z" />
    <glyph glyph-name="uFE84" unicode="&#x623;" horiz-adv-x="937" arabic-form="final" 
d="M440 1765c0 -72 -54.666 -120.999 -163.999 -146.999c-50 -12 -82 -17.333 -96 -16c-4 3.33301 -7.33301 7.66602 -10 12.999l100 36c57.333 22 90.666 42.333 99.999 61l-7 5l-25 -2l-23 3c-21.333 12 -32 31.667 -32 59c0 28.667 10.333 62.334 31 101.001
c23.333 43.333 47.333 65 72 65c10 0 18 -1.66699 24 -5v-22c0 -24.667 -8.33301 -48.334 -25 -71.001l-20 3c-7.33301 0 -14 -1.33301 -20 -4l-4 -4l-1 -11l2 -9l13 -12l40 2l25 -2c13.333 -18 20 -32.333 20 -43zM952.001 438.001
c-42.667 -36.667 -94.668 -55 -156.001 -55c-76 0 -138.667 41.333 -188 124c-28.667 48 -57.667 122 -87 222l-191 648c-2.66699 10 -2.66699 38 0 84s6.33398 74 11.001 84h7l12 -18c15.333 -71.333 61.333 -237.333 138 -498c38 -130 72 -225.667 102 -287
c62 -127.333 130.667 -191 206 -191c65.333 0 114 25.667 146 77v-190z" />
    <glyph glyph-name="uFE86" unicode="&#x624;" horiz-adv-x="899" arabic-form="final" 
d="M919 441c-8.66699 -8.66699 -45.002 -31.668 -109.002 -69.001c-44 -26 -77.667 -43.333 -101 -52c0 -168.667 -46 -311 -138 -427c-56.667 -71.333 -102.667 -114 -138 -128c-81.333 -32 -183.666 -48 -306.999 -48c-96 0 -200.667 21 -314 63l-8 9l6 6
c18 -0.666992 47.333 -4.33398 88 -11.001c38 -6.66699 67.333 -10 88 -10c187.333 0 349.666 64.667 486.999 194c30.667 28.667 64.334 69.334 101.001 122.001c39.333 56 65 101.333 77 136c4 12.667 5.66699 24.334 5 35.001l-3 39c-42 -16.667 -79.333 -25 -112 -25
c-73.333 0 -110 33.333 -110 100c0 51.333 5.66699 97 17 137c16.667 59.333 42.667 89 78 89c32.667 0 65.834 -13 99.501 -39s54.5 -54.667 62.5 -86c120 66 197 117.667 231 155v-190zM509.998 850.999c0 -49.333 -32.666 -90.6689 -97.999 -124.002
c-54 -27.333 -108 -41 -162 -41c-8 0 -12 4.66699 -12 14l98 35.5c47.333 17 80.333 33.833 99 50.5l5 10l-5 7l-25 -2l-28 2c-19.333 20 -29 40 -29 60c0 30.667 10.167 63.834 30.5 99.501s44.5 57.834 72.5 66.501l24 -6c0 -10 -2.66699 -26.667 -8 -50
c-6.66699 -25.333 -12.334 -40 -17.001 -44l-20 4c-10 0 -17.333 -2.33301 -22 -7l-3 -12c0 -8 5 -15 15 -21l40 1l23 -1c14.667 -14.667 22 -28.667 22 -42z" />
    <glyph glyph-name="uFE88" unicode="&#x625;" horiz-adv-x="781" arabic-form="final" 
d="M796 438c-42.667 -36.667 -95.332 -55.001 -157.999 -55.001c-76 0 -138.667 40.667 -188 122c-27.333 44.667 -56.333 119.334 -87 224.001l-192 648c-2.66699 9.33301 -2.33398 37.333 0.999023 84s7 74.667 11 84h7c4.66699 -4 16.667 -46.667 36 -128
c1.33301 -4 39.666 -133.333 114.999 -388c44.667 -150 77.334 -247 98.001 -291c58.667 -124.667 128.667 -187 210 -187c54 0 103 25.667 147 77v-190zM633.002 140.999c0 -49.333 -32.666 -90.6689 -97.999 -124.002c-54 -27.333 -108 -41 -162 -41
c-8 0 -12 4.66699 -12 14l98 35.5c47.333 17 80.333 33.833 99 50.5l5 10l-5 7l-25 -2l-28 2c-19.333 20 -29 40 -29 60c0 30.667 10.167 63.834 30.5 99.501s44.5 57.834 72.5 66.501l24 -6c0 -10 -2.66699 -26.667 -8 -50c-6.66699 -25.333 -12.334 -40 -17.001 -44l-20 4
c-10 0 -17.333 -2.33301 -22 -7l-3 -12c0 -8 5 -15 15 -21l40 1l23 -1c14.667 -14.667 22 -28.667 22 -42z" />
    <glyph glyph-name="uFE8A" unicode="&#x626;" horiz-adv-x="736" arabic-form="final" 
d="M753 438c-55.333 -36 -104.001 -69.667 -146.001 -101c-81.333 -61.333 -122 -105.333 -122 -132c0 -18.667 17 -41.334 51 -68.001c31.333 -25.333 57.333 -40 78 -44s44.334 -9 71.001 -15c54 -18 81 -84.667 81 -200c0 -126 -33.333 -249 -100 -369
c-78.667 -141.333 -175.667 -212 -291 -212c-116.667 0 -205.334 61 -266.001 183c-48 96 -72 209.333 -72 340c0 108 28.667 226 86 354c72 161.333 115 275.333 129 342c12 57.333 20 145 24 263c0.666992 14 5.33398 22.333 14.001 25l10 -5c4 -40 6 -77.333 6 -112
c0 -36 -11.667 -123.333 -35 -262c-6.66699 -48 -23 -104.667 -49 -170l-71 -162c-47.333 -112 -71 -210.667 -71 -296c0 -100.667 27.333 -180.667 82 -240c56.667 -62 134.667 -93 234 -93c69.333 0 143 50.333 221 151c74.667 96 112 179.667 112 251c0 22 -19 39 -57 51
l-81 21c-17.333 4.66699 -43.333 21.334 -78 50.001c-50 41.333 -75 134 -75 278c0 60 17.333 112.333 52 157c23.333 30.667 63.333 65 120 103c45.333 30.667 93 65 143 103v-191zM235.999 722c0 -49.333 -32.666 -90.6689 -97.999 -124.002
c-54 -27.333 -108 -41 -162 -41c-8 0 -12 4.66699 -12 14l98 35.5c47.333 17 80.333 33.833 99 50.5l5 10l-5 7l-25 -2l-28 2c-19.333 20 -29 40 -29 60c0 30.667 10.167 63.834 30.5 99.501s44.5 57.834 72.5 66.501l24 -6c0 -10 -2.66699 -26.667 -8 -50
c-6.66699 -25.333 -12.334 -40 -17.001 -44l-20 4c-10 0 -17.333 -2.33301 -22 -7l-3 -12c0 -8 5 -15 15 -21l40 1l23 -1c14.667 -14.667 22 -28.667 22 -42z" />
    <glyph glyph-name="uFE8B" unicode="&#x626;" horiz-adv-x="181" arabic-form="initial" 
d="M-40 1549c0 -40.667 -22.002 -76 -66.002 -106c-35.333 -24 -75.666 -39.667 -120.999 -47l-73 -12c-6 2.66699 -9.66699 7 -11 13l100 36c58 22 91.667 42.333 101 61l-7 6l-23 -1l-27 1c-19.333 12.667 -29 32.334 -29 59.001c0 29.333 10 63 30 101
c22.667 43.333 47 65 73 65c7.33301 0 15 -1.66699 23 -5c-1.33301 -40 -9.66602 -71 -24.999 -93l-20 3l-14 -1l-4 -2c-4 -4.66699 -6 -9 -6 -13c0 -8.66699 4.66699 -16.667 14 -24l40 2l23 -2c14.667 -14.667 22 -28.334 22 -41.001zM81.998 681
c0 -106 -31.665 -189.331 -94.998 -249.998v188c27.333 25.333 45.666 57.666 54.999 96.999c-18 85.333 -49.333 144.666 -94 177.999c-12 -16 -20.667 -34.333 -26 -55c-2.66699 -0.666992 -5.33398 -1 -8.00098 -1c-6 0 -9 11.333 -9 34c0 118 16 190.333 48 217
c58 -70 95 -134 111 -192c12 -43.333 18 -115.333 18 -216z" />
    <glyph glyph-name="uFE8C" unicode="&#x626;" horiz-adv-x="306" arabic-form="medial" 
d="M145 1179c3.33301 -10.667 6.66699 -22 10 -34c0 -49.333 -32.667 -90.333 -98 -123c-53.333 -26.667 -107.333 -40 -162 -40c-8 0 -12 4 -12 12c104.667 32 171 61.333 199 88l3 10l-7 7c-13.333 -1.33301 -25.666 -2 -36.999 -2c-28.667 0 -43 20.667 -43 62
c0 28.667 10.333 62.334 31 101.001c23.333 43.333 47.666 65 72.999 65c5.33301 0 13 -2 23 -6v-5c0 -42.667 -8.33301 -72.334 -25 -89.001l-22 4c-10 0 -17 -3 -21 -9v-20c4 -6.66699 22.333 -10 55 -10c14 0 25 -3.66699 33 -11zM321.001 440
c-44.667 -40 -97.3311 -59.999 -157.998 -59.999c-56.667 0 -105.334 24.333 -146.001 73l-30 -22v185c47.333 56.667 72.666 95.667 75.999 117l9 10c10 -20.667 15 -53.667 15 -99c0 -44.667 -10.667 -83.334 -32 -116.001c14 -8 36.333 -12 67 -12c26.667 0 61 13 103 39
c52 32 84 56.667 96 74v-189z" />
    <glyph glyph-name="uFE8E" unicode="&#x627;" horiz-adv-x="781" arabic-form="final" 
d="M796 438c-42.667 -36.667 -95.332 -55.001 -157.999 -55.001c-76 0 -138.667 40.667 -188 122c-27.333 44.667 -56.333 119.334 -87 224.001l-192 648c-2.66699 9.33301 -2.33398 37.333 0.999023 84s7 74.667 11 84h7c4.66699 -4 16.667 -46.667 36 -128
c1.33301 -4 39.666 -133.333 114.999 -388c44.667 -150 77.334 -247 98.001 -291c58.667 -124.667 128.667 -187 210 -187c54 0 103 25.667 147 77v-190z" />
    <glyph glyph-name="uFE90" unicode="&#x628;" horiz-adv-x="1675" arabic-form="final" 
d="M1692 440c-40.667 -36 -81.333 -54.0029 -122 -54.0029c-52 0 -96 25.333 -132 76c-32.667 46.667 -49 97 -49 151l-3 4l-11 -1c-7.33301 -5.33301 -79.333 -105.333 -216 -300c-173.333 -247.333 -363 -371 -569 -371c-142.667 0 -272 64.667 -388 194
c-112.667 125.333 -169 260.333 -169 405v30c0.666992 6 2.33398 19.333 5.00098 40c18 136.667 77.333 241 178 313c92 66 209.333 99 352 99c11.333 0 43.666 -1 96.999 -3c34.667 -1.33301 67.334 -1.66602 98.001 -0.999023c34.667 0.666992 66.667 4 96 10
c124 24.667 227.333 57 310 97l3 -12c-36.667 -29.333 -105 -62 -205 -98c-78 -28 -156.667 -42 -236 -42c-288.667 0 -486.667 -63.667 -594 -191c-43.333 -51.333 -65 -122 -65 -212c0 -115.333 49.5 -222 148.5 -320s206.5 -147 322.5 -147c82.667 0 147.667 10 195 30
c134 56.667 257.667 157 371 301l266 338c13.333 16.667 24 26.334 32 29.001l7 -4l8 -15c-2 -39.333 -3 -77.666 -3 -114.999c0 -34 15.667 -62.333 47 -85c28.667 -20.667 60.667 -31 96 -31c51.333 0 94.666 24.667 129.999 74v-189zM976.001 -265.003
c-12.667 -68 -31.666 -112.999 -56.999 -134.999l-105 62c1.33301 7.33301 18.666 54.666 51.999 141.999l63 -24c24 -11.333 39.667 -26.333 47 -45z" />
    <glyph glyph-name="uFE91" unicode="&#x628;" horiz-adv-x="155" arabic-form="initial" 
d="M82 681c0 -106 -31.665 -189.331 -94.998 -249.998v188c27.333 25.333 45.666 57.666 54.999 96.999c-18 85.333 -49.333 144.666 -94 177.999c-12 -16 -20.667 -34.333 -26 -55c-2.66699 -0.666992 -5.33398 -1 -8.00098 -1c-6 0 -9 11.333 -9 34
c0 118 16 190.333 48 217c58 -70 95 -134 111 -192c12 -43.333 18 -115.333 18 -216zM173.002 193.002l-21.5 -69.499c-10.333 -33.667 -21.833 -55.834 -34.5 -66.501l-105 61c2 14 19 61.333 51 142c33.333 -13.333 54 -22 62 -26c27.333 -14 43.333 -27.667 48 -41z" />
    <glyph glyph-name="uFE92" unicode="&#x628;" horiz-adv-x="306" arabic-form="medial" 
d="M321 440c-44.667 -40 -97.3311 -59.999 -157.998 -59.999c-56.667 0 -105.334 24.333 -146.001 73l-30 -22v185c47.333 56.667 72.666 95.667 75.999 117l9 10c10 -20.667 15 -53.667 15 -99c0 -44.667 -10.667 -83.334 -32 -116.001c14 -8 36.333 -12 67 -12
c26.667 0 61 13 103 39c52 32 84 56.667 96 74v-189zM186.003 180.001c-10 -35.333 -28.667 -80.332 -56 -134.999l-107 60l54 143c64.667 -22.667 101 -45.334 109 -68.001z" />
    <glyph glyph-name="uFE96" unicode="&#x62a;" horiz-adv-x="1675" arabic-form="final" 
d="M974 1429l3.00098 -80c1.33301 -35.333 -15.667 -68 -51 -98c-10 -8.66699 -42.333 -30 -97 -64c-14.667 -12 -37.334 -26.333 -68.001 -43c-2 8 -3 19.667 -3 35c0 20.667 7 62.667 21 126c76.667 40 141.667 81.333 195 124zM1692 440
c-40.667 -36 -81.333 -54.0029 -122 -54.0029c-52 0 -96 25.333 -132 76c-32.667 46.667 -49 97 -49 151l-3 4l-11 -1c-7.33301 -5.33301 -79.333 -105.333 -216 -300c-173.333 -247.333 -363 -371 -569 -371c-142.667 0 -272 64.667 -388 194
c-112.667 125.333 -169 260.333 -169 405v30c0.666992 6 2.33398 19.333 5.00098 40c18 136.667 77.333 241 178 313c92 66 209.333 99 352 99c11.333 0 43.666 -1 96.999 -3c34.667 -1.33301 67.334 -1.66602 98.001 -0.999023c34.667 0.666992 66.667 4 96 10
c124 24.667 227.333 57 310 97l3 -12c-36.667 -29.333 -105 -62 -205 -98c-78 -28 -156.667 -42 -236 -42c-288.667 0 -486.667 -63.667 -594 -191c-43.333 -51.333 -65 -122 -65 -212c0 -115.333 49.5 -222 148.5 -320s206.5 -147 322.5 -147c82.667 0 147.667 10 195 30
c134 56.667 257.667 157 371 301l266 338c13.333 16.667 24 26.334 32 29.001l7 -4l8 -15c-2 -39.333 -3 -77.666 -3 -114.999c0 -34 15.667 -62.333 47 -85c28.667 -20.667 60.667 -31 96 -31c51.333 0 94.666 24.667 129.999 74v-189z" />
    <glyph glyph-name="uFE97" unicode="&#x62a;" horiz-adv-x="150" arabic-form="initial" 
d="M-33 1632c0 -10.667 0.5 -27.001 1.5 -49.001s1.5 -38.333 1.5 -49c0 -37.333 -40 -79.666 -120 -126.999c-10.667 -2 -27.167 -12.167 -49.5 -30.5s-38.5 -28.833 -48.5 -31.5c0 2 -0.333008 5.33301 -1 10s-1 8 -1 10v42l22 102c83.333 46 148.333 87 195 123z
M82 680.999c0 -106 -31.665 -189.331 -94.998 -249.998v188c27.333 25.333 45.666 57.666 54.999 96.999c-18 85.333 -49.333 144.666 -94 177.999c-12 -16 -20.667 -34.333 -26 -55c-2.66699 -0.666992 -5.33398 -1 -8.00098 -1c-6 0 -9 11.333 -9 34
c0 118 16 190.333 48 217c58 -70 95 -134 111 -192c12 -43.333 18 -115.333 18 -216z" />
    <glyph glyph-name="uFE98" unicode="&#x62a;" horiz-adv-x="306" arabic-form="medial" 
d="M90 1250c0 -8.66699 0.833008 -21.3311 2.5 -37.998s2.5 -29.334 2.5 -38.001c0 -37.333 -17.333 -71 -52 -101l-100 -64l-66 -43l-2 18v40l22 105c66 31.333 130.333 71.666 193 120.999zM321 440.003c-44.667 -40 -97.3311 -59.999 -157.998 -59.999
c-56.667 0 -105.334 24.333 -146.001 73l-30 -22v185c47.333 56.667 72.666 95.667 75.999 117l9 10c10 -20.667 15 -53.667 15 -99c0 -44.667 -10.667 -83.334 -32 -116.001c14 -8 36.333 -12 67 -12c26.667 0 61 13 103 39c52 32 84 56.667 96 74v-189z" />
    <glyph glyph-name="uFE9A" unicode="&#x62b;" horiz-adv-x="1675" arabic-form="final" 
d="M1692 440c-40.667 -36 -81.333 -54.0029 -122 -54.0029c-52 0 -96 25.333 -132 76c-32.667 46.667 -49 97 -49 151l-3 4l-11 -1c-7.33301 -5.33301 -79.333 -105.333 -216 -300c-173.333 -247.333 -363 -371 -569 -371c-142.667 0 -272 64.667 -388 194
c-112.667 125.333 -169 260.333 -169 405v30c0.666992 6 2.33398 19.333 5.00098 40c18 136.667 77.333 241 178 313c92 66 209.333 99 352 99c11.333 0 43.666 -1 96.999 -3c34.667 -1.33301 67.334 -1.66602 98.001 -0.999023c34.667 0.666992 66.667 4 96 10
c124 24.667 227.333 57 310 97l3 -12c-36.667 -29.333 -105 -62 -205 -98c-78 -28 -156.667 -42 -236 -42c-288.667 0 -486.667 -63.667 -594 -191c-43.333 -51.333 -65 -122 -65 -212c0 -115.333 49.5 -222 148.5 -320s206.5 -147 322.5 -147c82.667 0 147.667 10 195 30
c134 56.667 257.667 157 371 301l266 338c13.333 16.667 24 26.334 32 29.001l7 -4l8 -15c-2 -39.333 -3 -77.666 -3 -114.999c0 -34 15.667 -62.333 47 -85c28.667 -20.667 60.667 -31 96 -31c51.333 0 94.666 24.667 129.999 74v-189zM1059 1520
c0 -22 -5.99707 -48.332 -17.9971 -78.999c-14 -36 -30 -54 -48 -54l-14 12l-5 13l-3 3c-18.667 8 -31.334 12 -38.001 12c-26.667 0 -55.667 -15.333 -87 -46s-50.333 -59.667 -57 -87c-8.66699 -34 -21.334 -76.333 -38.001 -127l-5 52
c0 61.333 23.333 134.666 70 219.999c52 94.667 104.333 142 157 142c19.333 0 37.666 -5.33301 54.999 -16c20.667 -12 31 -27 31 -45z" />
    <glyph glyph-name="uFE9B" unicode="&#x62b;" horiz-adv-x="150" arabic-form="initial" 
d="M82 681c0 -106 -31.665 -189.331 -94.998 -249.998v188c27.333 25.333 45.666 57.666 54.999 96.999c-18 85.333 -49.333 144.666 -94 177.999c-12 -16 -20.667 -34.333 -26 -55c-2.66699 -0.666992 -5.33398 -1 -8.00098 -1c-6 0 -9 11.333 -9 34
c0 118 16 190.333 48 217c58 -70 95 -134 111 -192c12 -43.333 18 -115.333 18 -216zM43.002 1658c0 -22 -5.99707 -48.332 -17.9971 -78.999c-14 -36 -30 -54 -48 -54l-14 12l-5 13l-3 3c-18.667 8 -31.334 12 -38.001 12c-26.667 0 -55.667 -15.333 -87 -46
s-50.333 -59.667 -57 -87c-8.66699 -34 -21.334 -76.333 -38.001 -127l-5 52c0 61.333 23.333 134.666 70 219.999c52 94.667 104.333 142 157 142c19.333 0 37.666 -5.33301 54.999 -16c20.667 -12 31 -27 31 -45z" />
    <glyph glyph-name="uFE9C" unicode="&#x62b;" horiz-adv-x="306" arabic-form="medial" 
d="M321 440c-44.667 -40 -97.3311 -59.999 -157.998 -59.999c-56.667 0 -105.334 24.333 -146.001 73l-30 -22v185c47.333 56.667 72.666 95.667 75.999 117l9 10c10 -20.667 15 -53.667 15 -99c0 -44.667 -10.667 -83.334 -32 -116.001c14 -8 36.333 -12 67 -12
c26.667 0 61 13 103 39c52 32 84 56.667 96 74v-189zM147.003 1146c0 -22 -5.99707 -48.332 -17.9971 -78.999c-14 -36 -30 -54 -48 -54l-14 12l-5 13l-3 3c-18.667 8 -31.334 12 -38.001 12c-26.667 0 -55.667 -15.333 -87 -46s-50.333 -59.667 -57 -87
c-8.66699 -34 -21.334 -76.333 -38.001 -127l-5 52c0 61.333 23.333 134.666 70 219.999c52 94.667 104.333 142 157 142c19.333 0 37.666 -5.33301 54.999 -16c20.667 -12 31 -27 31 -45z" />
    </font>
</defs>
</svg>
